<svg id="Layer_1" data-name="Layer 1" xmlns="http://www.w3.org/2000/svg" viewBox="0 0 384 384"><defs><style>.cls-1{fill:#fefefe;}.cls-2{fill:#030202;}.cls-3{fill:#fdfdfd;}.cls-4{fill:#f4911a;}.cls-5{fill:#fd5c5c;}.cls-6{fill:#fbf9f3;}.cls-7{fill:#fa5d5d;}.cls-8{fill:#fe5c5c;}.cls-9{fill:#fcfcfc;}.cls-10{fill:#f8f3f3;}.cls-11{fill:#fcf7f7;}.cls-12{fill:#f7f7f7;}.cls-13{fill:#fbfbfb;}.cls-14{fill:#89510e;}.cls-15{fill:#da8f32;}.cls-16{fill:#fdf6ee;}.cls-17{fill:#f8a94a;}.cls-18{fill:#f68f12;}.cls-19{fill:#f68806;}.cls-20{fill:#f0bc17;}.cls-21{fill:#f0bc19;}.cls-22{fill:#f0be1f;}.cls-23{fill:#f79927;}.cls-24{fill:#f79b2c;}.cls-25{fill:#f6931b;}</style></defs><title>BBTCBUSD</title><path class="cls-1" d="M1152,732H768V348h384ZM833.87,542.06a72.65,72.65,0,0,0-53.12,81.11c5,32.67,33,58.17,66.25,60.77,31.61,2.46,72.71-20.33,77-65.72h29.74a3.26,3.26,0,0,1,.17.57c0,7.25,0,14.5,0,21.75,0,5.35,2.12,7.44,7.52,7.45q16.13,0,32.25,0c6.38,0,8.23-1.86,8.23-8.25q0-10.8,0-21.6h47.79c.1.28.21.43.17.52-.35.79-.73,1.56-1.1,2.35-4.26,9-6,18.5-4.21,28.41,3.6,19.78,15,33.11,34.24,38.64s36.12.42,49.17-14.57,15.41-32.52,7.69-51.06a21.1,21.1,0,0,1-2-10.56c2.47-31.27,4.24-62.6,6.17-93.91.36-5.74-1.77-7.86-7.62-8.08q-20.79-.79-41.59-1.62c-7.48-.3-15-.65-22.71-1v-3.9c0-16.13-.16-32.26.06-48.39.12-8.57-.82-11.76-10.74-11.09-.21,0-.44-.18-.81-.34.92-7.55,4.56-13.81,9.2-19l-8.37-8.43c-7.45,7.57-11.72,16.91-13.14,27.79h-3.54c-7,0-8.67,1.7-8.67,8.55q0,21.57,0,43.13v9.6h-19.29c-3.34-26.68-6.6-52.8-9.9-79.16.75-.12,1.34-.18,1.92-.31,10-2.24,16.16-10.21,15.2-19.64s-8.78-16.18-19.2-16.19q-80.07,0-160.13,0c-9.11,0-16,5.33-18.09,13.85-2,8.09,1.64,15.83,9.24,20.24a5,5,0,0,1,2.12,3.57c.16,11.75.09,23.5.09,35.25v36.44c-1.25.29-2.31.6-3.39.79a110.13,110.13,0,0,0-34.3,12.42c-4.69,2.59-5.46,5.47-2.79,10.18,3.27,5.75,6.59,11.46,9.9,17.19,3.5,6.06,5.45,6.43,11.77,3.44,6-2.82,12.19-5.12,18.74-7.83Z" transform="translate(-768 -348)"/><path class="cls-2" d="M833.87,542.06v-6.61c-6.55,2.71-12.77,5-18.74,7.83-6.32,3-8.27,2.62-11.77-3.44-3.31-5.73-6.63-11.44-9.9-17.19-2.67-4.71-1.9-7.59,2.79-10.18a110.13,110.13,0,0,1,34.3-12.42c1.08-.19,2.14-.5,3.39-.79V462.82c0-11.75.07-23.5-.09-35.25a5,5,0,0,0-2.12-3.57c-7.6-4.41-11.25-12.15-9.24-20.24,2.11-8.52,9-13.85,18.09-13.85q80.07,0,160.13,0c10.42,0,18.23,6.62,19.2,16.19s-5.2,17.4-15.2,19.64c-.58.13-1.17.19-1.92.31,3.3,26.36,6.56,52.48,9.9,79.16H1032v-9.6q0-21.56,0-43.13c0-6.85,1.71-8.53,8.67-8.55h3.54c1.42-10.88,5.69-20.22,13.14-27.79l8.37,8.43c-4.64,5.17-8.28,11.43-9.2,19,.37.16.6.36.81.34,9.92-.67,10.86,2.52,10.74,11.09-.22,16.13-.06,32.26-.06,48.39v3.9c7.76.35,15.23.7,22.71,1q20.79.84,41.59,1.62c5.85.22,8,2.34,7.62,8.08-1.93,31.31-3.7,62.64-6.17,93.91a21.1,21.1,0,0,0,2,10.56c7.72,18.54,5.45,36-7.69,51.06s-30,20.07-49.17,14.57-30.64-18.86-34.24-38.64c-1.8-9.91-.05-19.36,4.21-28.41.37-.79.75-1.56,1.1-2.35,0-.09-.07-.24-.17-.52H1002q0,10.8,0,21.6c0,6.39-1.85,8.25-8.23,8.25q-16.12,0-32.25,0c-5.4,0-7.5-2.1-7.52-7.45,0-7.25,0-14.5,0-21.75a3.26,3.26,0,0,0-.17-.57H924c-4.31,45.39-45.41,68.18-77,65.72-33.3-2.6-61.26-28.1-66.25-60.77A72.65,72.65,0,0,1,833.87,542.06Zm44.38,15.81,0,0c-7-4.12-14.29-7-22.59-6.55l-10.46-.05c-2.35,0-4.85-.44-7,.18-8.74,2.49-17.13,5.91-24.34,11.57-2.53,2-4.49,4.68-6.71,7.05l-.83.82c-2.06,2.13-4.48,4-6.11,6.44-5.82,8.67-10.5,17.84-10.41,28.69a61.86,61.86,0,0,0,9.65,39.87c9.91,15.54,24.47,24.78,42.13,27.85,16.79,2.92,32.81-1.24,46.44-11.9,17.84-14,26.31-32.34,24.48-55.16-.57-3.39-.79-6.88-1.78-10.15-2-6.66-4.14-13.33-9.16-18.54a.48.48,0,0,0-.35-.56,22.67,22.67,0,0,0-2.24-3.72c-5.14-5.72-10.29-11.46-17.72-14.37l0,0ZM876,500.46c0-6.72,0-13,0-19.2,0-5.16,2.13-7.3,7.25-7.32,7.12,0,14.25,0,21.37,0,4.72,0,6.32,1.28,7.52,6.06,3.27,12.94,6.38,25.91,9.82,38.79a13.75,13.75,0,0,0,4,6.35,118,118,0,0,1,21.79,25.09c3,4.8,5.69,9.83,8.11,14H978c0-10.87,0-21.09-.06-31.32a3.23,3.23,0,0,0-1.27-2.34c-6.13-3.78-12.33-7.43-18.71-11.23-1.52,3.7-2.94,7.13-4.44,10.79l-11.09-4.47c4.11-10.26,8-20,12-30l11,4.49-3,7.84,15,9,1.21-.5q-5.94-45.18-11.88-90.34H870.05v73.12Zm251.79,21.07L990.17,516V564h2.36c7.72.1,9.45,1.83,9.45,9.5q0,14.63,0,29.26c0,1.06.13,2.12.2,3.25,19,0,37.63,0,56.26,0a4.94,4.94,0,0,0,2.52-.39c3.61-2.38,7.13-4.9,10.86-7.5a30.29,30.29,0,0,1-9.52-19.3c-.41-4.34-.33-8.74-.31-13.11.07-18.71,13.07-31.64,31.84-31.71,9.88,0,19.76,0,29.63,0H1127C1127.28,529.55,1127.5,525.72,1127.74,521.53ZM1092,678.16c20-.61,35.64-15.48,35.85-34.08.28-24.49-14.94-37.16-36.1-38.1-17.37-.76-36.34,14.85-35.53,37.93C1056.76,660.38,1070.64,678,1092,678.16ZM805.91,520.51c1.78,3.1,3.42,5.61,4.69,8.3,1.08,2.27,2.27,2.32,4.39,1.37,16.31-7.31,33.33-10.06,51-6.79,36.83,6.82,60.9,28.29,72.18,63.94,1.89,6,2.64,12.28,3.92,18.42h12.06c-3.57-35.72-19.71-63.6-50.56-81.74C872.11,505.49,839.43,505.39,805.91,520.51ZM920.72,413.9q40.11,0,80.23,0c4.55,0,7-2,7-5.85.07-4-2.36-6.14-7.1-6.14H841.15c-4.81,0-7.22,2-7.2,6s2.42,5.95,7.28,5.95Q881,413.92,920.72,413.9ZM1126.38,546c-11.8,0-23.29,0-34.77,0A17.7,17.7,0,0,0,1074,563.52q0,6.38,0,12.75A17.78,17.78,0,0,0,1091.48,594c9.24.26,18,2.36,25.82,7.45l5.24,3.38c.37-5.89.71-11.26,1.07-17H1092.2v-12h32.15c.26-4,.5-7.85.76-12h-32.93v-12h33.47C1125.89,550,1126.1,548.23,1126.38,546ZM978.68,426.05c3.53,26.35,7,52.3,10.49,78.39h11.47c-3.3-26.35-6.57-52.43-9.83-78.39ZM857.73,498v-71.9h-11.5V498Zm72,107.8c-4.11-46.61-45.56-75.39-83.58-71.42v5.66c19.6-1.05,37.15,4.21,52.14,16.87s23.38,29.24,25.49,48.89Zm126-99.25V456.21h-11.55v50.37ZM888.08,503.5l19.73,8.64-6.5-26H888.08ZM989.7,611.84V600.25H966.24v11.59Zm.16-35.63H966.21v11.52h23.65Zm0,48H966.21v11.53h23.65Z" transform="translate(-768 -348)"/><path class="cls-3" d="M876,500.46l-5.9-1.18V426.16h96.74q5.94,45.15,11.88,90.34l-1.21.5-15-9,3-7.84-11-4.49c-4,9.94-7.91,19.71-12,30l11.09,4.47c1.5-3.66,2.92-7.09,4.44-10.79,6.38,3.8,12.58,7.45,18.71,11.23a3.23,3.23,0,0,1,1.27,2.34c.09,10.23.06,20.45.06,31.32h-22.2c-2.42-4.2-5.08-9.23-8.11-14a118,118,0,0,0-21.79-25.09,13.75,13.75,0,0,1-4-6.35c-3.44-12.88-6.55-25.85-9.82-38.79-1.2-4.78-2.8-6-7.52-6.06-7.12,0-14.25,0-21.37,0-5.12,0-7.22,2.16-7.25,7.32C875.92,487.5,876,493.74,876,500.46Z" transform="translate(-768 -348)"/><path class="cls-4" d="M901.21,577.46a.48.48,0,0,1,.35.56,7.43,7.43,0,0,0,.54,2.11,65.27,65.27,0,0,1,8.58,23.67c.17,1,1.19,1.94,1.82,2.91,1.83,22.82-6.64,41.21-24.48,55.16-13.63,10.66-29.65,14.82-46.44,11.9-17.66-3.07-32.22-12.31-42.13-27.85a61.86,61.86,0,0,1-9.65-39.87,8.84,8.84,0,0,0,1.31-2.37c1.56-8.41,4.17-16.41,8.86-23.62,2-3.11,4.23-6.1,6.35-9.14l.83-.82A10.84,10.84,0,0,0,809,569a63.22,63.22,0,0,1,31.35-16.13,51.08,51.08,0,0,0,4.89-1.52l10.46.05c.38.43.69,1.12,1.15,1.24,4.3,1.08,8.63,2,12.94,3.08,2.84.7,5.67,1.49,8.5,2.23l0,0,3,1.53,0,0a11.67,11.67,0,0,0,1.59,2.23c5.17,4.56,10.39,9.07,15.61,13.58C899.35,576,900.29,576.7,901.21,577.46ZM839.9,648l3,1.52c4.61,3.76,7.92,2.92,9.46-2.4a20.92,20.92,0,0,0,1-3.2c.25-2.14,1.1-2.4,3.24-2.09,12.3,1.74,19.22-2.6,22-13.49,1.25-4.84-1.19-10.4-5.09-11.63l.07-.21-.09.2c.58-1.29,1.15-2.59,1.72-3.89l.8-.78c3.08-1.79,5.39-7.08,4.15-10.6-.66-1.9-2.29-3.46-3.49-5.17L874.43,594l-7.64-4.39c.7-2.62,1.57-5.2,2-7.85.21-1.26-.19-3.67-.76-3.82a60.68,60.68,0,0,0-8.45-1.14l-2.34-.84L852,574.43l-1.54-.07c-.6.08-1.68,0-1.73.24-.6,2.59-1.06,5.21-1.55,7.83l-.24,1.15c-2.9-.58-5.77-1.35-8.69-1.7a44.77,44.77,0,0,0-6.44.11c-2.58.81-3.45,4.69-1.52,6.75l1.45,1.47c.33.72.53,1.94,1,2.07,3,.82,3,2.93,2.41,5.26-2,8-4,16-5.7,23l-5.22,2.74-1.51,1.46c-2.21.26-5.24,5-4.22,6.8.26.45,1.27.47,1.93.69l1.55,1.46c-.25,2.92,1.64,3.22,3.82,3,2.71-.23,4,.9,3.66,3.64a15.69,15.69,0,0,0-.34,4c.13.79,1.18,1.42,1.82,2.13l.79,1.44c.36,4,4.45,1.69,6.26,4.65l.47-3.82Z" transform="translate(-768 -348)"/><path class="cls-5" d="M1127.74,521.53c-.24,4.19-.46,8-.72,12.42h-3.55c-9.87,0-19.75,0-29.63,0-18.77.07-31.77,13-31.84,31.71,0,4.37-.1,8.77.31,13.11a30.29,30.29,0,0,0,9.52,19.3c-3.73,2.6-7.25,5.12-10.86,7.5a4.94,4.94,0,0,1-2.52.39c-18.63,0-37.25,0-56.26,0-.07-1.13-.2-2.19-.2-3.25q0-14.62,0-29.26c0-7.67-1.73-9.4-9.45-9.5h-2.36V516Zm-96,18.3V528.14H1008.2v11.69ZM1008,557.74h23.69v-11.5H1008Zm.07,18.06h23.67V564.2h-23.67Z" transform="translate(-768 -348)"/><path class="cls-6" d="M1092,678.16c-21.32-.12-35.2-17.78-35.78-34.25-.81-23.08,18.16-38.69,35.53-37.93,21.16.94,36.38,13.61,36.1,38.1C1127.6,662.68,1111.92,677.55,1092,678.16Zm-11.71-15.26,6.34-6.8c7.76-8.28,15.56-16.53,23.24-24.89.69-.76,1.2-2.71.75-3.3-1.93-2.53-4.26-4.75-7.19-7.9a38.77,38.77,0,0,1-2.68,3.82q-10.95,11.79-22,23.5c-7.45,7.88-7.49,7.85.6,15.14A6.46,6.46,0,0,0,1080.25,662.9Zm35.38-29.39c-10.28,10.94-20.45,21.72-30.52,32.58a2.68,2.68,0,0,0,.05,2.56c2,2.46,4.29,4.73,6.58,7.2.89-.77,1.49-1.21,2-1.74,7.91-8.48,15.87-16.92,23.7-25.47C1124.42,641,1124.35,640.94,1115.63,633.51Zm-24-25.37c-6.21,6.58-12.38,13.06-18.45,19.65a2.68,2.68,0,0,0-.2,2.59c2.11,2.52,4.46,4.85,6.86,7.4,4.82-5.11,9.19-9.72,13.54-14.34,7.08-7.52,7.08-7.52-.55-14.62A8.39,8.39,0,0,0,1091.66,608.14Zm-23.47,42.2c2.24-2.42,4.38-4.51,6.21-6.85a3.28,3.28,0,0,0,.16-3.09c-2-2.37-4.23-4.47-6.35-6.63-9.07,6.77-9.18,8-1.59,15.34C1067,649.45,1067.38,649.71,1068.19,650.34Z" transform="translate(-768 -348)"/><path class="cls-7" d="M805.91,520.51c33.52-15.12,66.2-15,97.68,3.5,30.85,18.14,47,46,50.56,81.74H942.09c-1.28-6.14-2-12.46-3.92-18.42-11.28-35.65-35.35-57.12-72.18-63.94-17.67-3.27-34.69-.52-51,6.79-2.12,1-3.31.9-4.39-1.37C809.33,526.12,807.69,523.61,805.91,520.51Z" transform="translate(-768 -348)"/><path class="cls-8" d="M920.72,413.9q-39.75,0-79.49,0c-4.86,0-7.26-2-7.28-5.95s2.39-6,7.2-6h159.72c4.74,0,7.17,2.12,7.1,6.14-.06,3.82-2.47,5.85-7,5.85Q960.84,413.92,920.72,413.9Z" transform="translate(-768 -348)"/><path class="cls-9" d="M1126.38,546c-.28,2.27-.49,4-.73,6h-33.47v12h32.93c-.26,4.13-.5,7.93-.76,12H1092.2v12h31.41c-.36,5.7-.7,11.07-1.07,17l-5.24-3.38c-7.85-5.09-16.58-7.19-25.82-7.45A17.78,17.78,0,0,1,1074,576.27q0-6.37,0-12.75A17.7,17.7,0,0,1,1091.61,546C1103.09,545.93,1114.58,546,1126.38,546Z" transform="translate(-768 -348)"/><path class="cls-10" d="M978.68,426.05h12.13c3.26,26,6.53,52,9.83,78.39H989.17C985.68,478.35,982.21,452.4,978.68,426.05Z" transform="translate(-768 -348)"/><path class="cls-11" d="M857.73,498h-11.5v-71.9h11.5Z" transform="translate(-768 -348)"/><path class="cls-12" d="M929.7,605.83h-6c-2.11-19.65-10.38-36.14-25.49-48.89S865.72,539,846.12,540.07v-5.66C884.14,530.44,925.59,559.22,929.7,605.83Z" transform="translate(-768 -348)"/><path class="cls-5" d="M1055.73,506.58h-11.55V456.21h11.55Z" transform="translate(-768 -348)"/><path class="cls-13" d="M888.08,503.5V486.1h13.23l6.5,26Z" transform="translate(-768 -348)"/><path class="cls-1" d="M989.7,611.84H966.24V600.25H989.7Z" transform="translate(-768 -348)"/><path class="cls-1" d="M989.86,576.21v11.52H966.21V576.21Z" transform="translate(-768 -348)"/><path class="cls-1" d="M989.86,624.22v11.53H966.21V624.22Z" transform="translate(-768 -348)"/><path class="cls-14" d="M845.24,551.3a51.08,51.08,0,0,1-4.89,1.52A63.22,63.22,0,0,0,809,569a10.84,10.84,0,0,1-1.85,1.15c2.22-2.37,4.18-5.06,6.71-7.05,7.21-5.66,15.6-9.08,24.34-11.57C840.39,550.86,842.89,551.33,845.24,551.3Z" transform="translate(-768 -348)"/><path class="cls-14" d="M806.32,570.92c-2.12,3-4.32,6-6.35,9.14-4.69,7.21-7.3,15.21-8.86,23.62a8.84,8.84,0,0,1-1.31,2.37c-.09-10.85,4.59-20,10.41-28.69C801.84,574.94,804.26,573.05,806.32,570.92Z" transform="translate(-768 -348)"/><path class="cls-15" d="M912.5,606.71c-.63-1-1.65-1.87-1.82-2.91a65.27,65.27,0,0,0-8.58-23.67,7.43,7.43,0,0,1-.54-2.11c5,5.21,7.16,11.88,9.16,18.54C911.71,599.83,911.93,603.32,912.5,606.71Z" transform="translate(-768 -348)"/><path class="cls-15" d="M901.21,577.46c-.92-.76-1.86-1.5-2.76-2.28-5.22-4.51-10.44-9-15.61-13.58a11.67,11.67,0,0,1-1.59-2.23c7.43,2.91,12.58,8.65,17.72,14.37A22.67,22.67,0,0,1,901.21,577.46Z" transform="translate(-768 -348)"/><path class="cls-15" d="M878.29,557.9c-2.83-.74-5.66-1.53-8.5-2.23-4.31-1-8.64-2-12.94-3.08-.46-.12-.77-.81-1.15-1.24C864,550.88,871.32,553.78,878.29,557.9Z" transform="translate(-768 -348)"/><path class="cls-15" d="M881.29,559.4l-3-1.53Z" transform="translate(-768 -348)"/><path class="cls-16" d="M850.42,574.36l1.54.07c4,1.51,3.9,4.39,2.62,7.69-.23.58-.37,1.19-.6,1.77-.84,2,.09,3,1.95,3.58s3.15.27,3.67-1.8a49.84,49.84,0,0,0,1.29-5c.31-2.1,1.45-2.7,3.38-2.47,2.78.33,3.83,1.36,3,4.49-.6,2.15-3,4.53-.43,7l7.64,4.39,2.25,2.21c3.19,5.4,2.32,10.63-.66,15.77l-.8.78-3.47,2.1,1.75,1.79.09-.2-.07.21c5.21,7.68,4.5,15.81-2,21.11-4.24,3.47-9.44,3.4-14.3,2.48-3.89-.73-4.92.91-5.57,3.91-.21,1-.39,2-.57,2.93-.41,2.22-1.17,3.78-4,2.94-2.35-.7-3.4-1.73-2.38-4.31a12.55,12.55,0,0,0,1.07-5.07c0-1-1.41-1.88-2.18-2.83l-1.35-.05c-.75.76-1.81,1.39-2.2,2.31a23.58,23.58,0,0,0-1,4.34c-.52,2.44-1.91,3.2-4.37,2.55s-2.74-2-2.06-4.19a40,40,0,0,0,.9-4.66l.18-1.35c-.94-.89-1.74-2.13-2.86-2.59a46.58,46.58,0,0,0-6.46-1.75c-1.81-.44-3.23-1.2-2-3.31,1.06-1.84,1.22-5.34,4.67-3.91,3.69,1.52,5.08-.16,5.86-3.29q3.22-12.83,6.38-25.68c1-4,0-5.87-4.13-6.66-2.45-.47-3.23-1.55-2.63-3.83s1.75-3.79,4.55-2.88a43,43,0,0,0,6.85,1.74c.9.13,1.94-.67,2.92-1l.24-1.15Zm7.68,35.22c4.23.08,7-1.66,7.68-5.08.69-3.74-1.77-5.71-4.66-7.25a22.21,22.21,0,0,0-3.46-1.41c-5.44-1.8-5.72-1.64-7.11,3.79C848.28,608.48,849,609.42,858.1,609.58Zm-4.49,21.83c6.15.05,9.4-1.93,10.19-5.37.72-3.09-1.06-6.07-5.32-8a39.58,39.58,0,0,0-8.83-2.91,4.22,4.22,0,0,0-3.49,2.08,39.39,39.39,0,0,0-2.3,9c-.16,1.1.75,3.16,1.61,3.44A66.68,66.68,0,0,0,853.61,631.41Z" transform="translate(-768 -348)"/><path class="cls-17" d="M846.9,583.58c-1,.38-2,1.18-2.92,1a43,43,0,0,1-6.85-1.74c-2.8-.91-3.92.55-4.55,2.88s.18,3.36,2.63,3.83c4.11.79,5.12,2.64,4.13,6.66q-3.15,12.84-6.38,25.68c-.78,3.13-2.17,4.81-5.86,3.29-3.45-1.43-3.61,2.07-4.67,3.91-1.21,2.11.21,2.87,2,3.31a46.58,46.58,0,0,1,6.46,1.75c1.12.46,1.92,1.7,2.86,2.59L822,633.69l-1.55-1.46q1.15-3.75,2.29-7.49l1.51-1.46c1.46.24,3,.84,4.37.58,1.12-.21,2.71-1.27,3-2.25,2.26-8.51,4.11-17.12,6.41-25.62.73-2.67.2-4.08-2.28-4.86-1.3-.4-2.66-.62-4-.92l-1.45-1.47c.51-2.25,1-4.5,1.52-6.75a44.77,44.77,0,0,1,6.44-.11C841.13,582.23,844,583,846.9,583.58Z" transform="translate(-768 -348)"/><path class="cls-17" d="M843.62,637.85c.77.94,2.13,1.84,2.18,2.82a12.55,12.55,0,0,1-1.07,5.07c-1,2.58,0,3.61,2.38,4.31,2.81.84,3.57-.72,4-2.94.18-1,.36-2,.57-2.93.65-3,1.68-4.64,5.57-3.91,4.86.92,10.06,1,14.3-2.48,6.49-5.3,7.2-13.43,2-21.11,3.9,1.23,6.34,6.79,5.09,11.63-2.81,10.89-9.73,15.23-22,13.49-2.14-.31-3,0-3.24,2.09a20.92,20.92,0,0,1-1,3.2c-1.54,5.32-4.85,6.16-9.46,2.4.3-2,.73-4,.86-6.08A54.34,54.34,0,0,0,843.62,637.85Z" transform="translate(-768 -348)"/><path class="cls-18" d="M831.7,590.21c1.32.3,2.68.52,4,.92,2.48.78,3,2.19,2.28,4.86-2.3,8.5-4.15,17.11-6.41,25.62-.26,1-1.85,2-3,2.25-1.38.26-2.91-.34-4.37-.58l5.22-2.74c1.74-7,3.74-15,5.7-23,.57-2.33.62-4.44-2.41-5.26C832.23,592.15,832,590.93,831.7,590.21Z" transform="translate(-768 -348)"/><path class="cls-17" d="M866.79,589.63c-2.59-2.46-.17-4.84.43-7,.88-3.13-.17-4.16-3-4.49-1.93-.23-3.07.37-3.38,2.47a49.84,49.84,0,0,1-1.29,5c-.52,2.07-1.74,2.45-3.67,1.8s-2.79-1.56-1.95-3.58c.23-.58.37-1.19.6-1.77,1.28-3.3,1.35-6.18-2.62-7.69l5.28,1.55c-.5,3.16-1,6.32-1.49,9.48l1.31.3a13.4,13.4,0,0,0,2.52-8.94A60.68,60.68,0,0,1,868,578c.57.15,1,2.56.76,3.82C868.36,584.43,867.49,587,866.79,589.63Z" transform="translate(-768 -348)"/><path class="cls-18" d="M822,633.69l11.81,3.1-.18,1.35c-3.18,2.05-2.09,5.47-2.67,8.35-.64-.71-1.69-1.34-1.82-2.13a15.69,15.69,0,0,1,.34-4c.3-2.74-1-3.87-3.66-3.64C823.6,636.91,821.71,636.61,822,633.69Z" transform="translate(-768 -348)"/><path class="cls-17" d="M830.92,646.49c.58-2.88-.51-6.3,2.67-8.35a40,40,0,0,1-.9,4.66c-.68,2.17-.38,3.54,2.06,4.19s3.85-.11,4.37-2.55a23.58,23.58,0,0,1,1-4.34c.39-.92,1.45-1.55,2.2-2.31L839.9,648l-1.46.79-6.73-.83Z" transform="translate(-768 -348)"/><path class="cls-18" d="M839.9,648l2.37-10.18,1.35.05a54.61,54.61,0,0,1,.16,5.57c-.13,2-.56,4.05-.86,6.08Z" transform="translate(-768 -348)"/><path class="cls-17" d="M876,612c3-5.14,3.85-10.37.66-15.77,1.2,1.71,2.83,3.27,3.49,5.17C881.41,604.92,879.1,610.21,876,612Z" transform="translate(-768 -348)"/><path class="cls-19" d="M859.58,576.82a13.4,13.4,0,0,1-2.52,8.94l-1.31-.3c.5-3.16,1-6.32,1.49-9.48Z" transform="translate(-768 -348)"/><path class="cls-18" d="M822.7,624.74q-1.14,3.74-2.29,7.49c-.66-.22-1.67-.24-1.93-.69C817.46,629.76,820.49,625,822.7,624.74Z" transform="translate(-768 -348)"/><path class="cls-18" d="M831.71,647.93l6.73.83c-.11.93-.23,1.85-.47,3.82C836.16,649.62,832.07,652,831.71,647.93Z" transform="translate(-768 -348)"/><path class="cls-17" d="M850.42,574.36l-3.28,8.07c.49-2.62,1-5.24,1.55-7.83C848.74,574.4,849.82,574.44,850.42,574.36Z" transform="translate(-768 -348)"/><path class="cls-18" d="M831.77,582c-.51,2.25-1,4.5-1.52,6.75C828.32,586.68,829.19,582.8,831.77,582Z" transform="translate(-768 -348)"/><path class="cls-17" d="M874.43,594l-7.64-4.39Z" transform="translate(-768 -348)"/><path class="cls-17" d="M873.5,616.67l-1.75-1.79,3.47-2.1C874.65,614.08,874.08,615.38,873.5,616.67Z" transform="translate(-768 -348)"/><path d="M1031.69,539.83H1008.2V528.14h23.49Z" transform="translate(-768 -348)"/><path d="M1008,557.74v-11.5h23.69v11.5Z" transform="translate(-768 -348)"/><path d="M1008.11,575.8V564.2h23.67v11.6Z" transform="translate(-768 -348)"/><path class="cls-20" d="M1080.25,662.9a6.46,6.46,0,0,1-.92-.43c-8.09-7.29-8-7.26-.6-15.14s14.68-15.64,22-23.5a38.77,38.77,0,0,0,2.68-3.82c2.93,3.15,5.26,5.37,7.19,7.9.45.59-.06,2.54-.75,3.3-7.68,8.36-15.48,16.61-23.24,24.89Z" transform="translate(-768 -348)"/><path class="cls-20" d="M1115.63,633.51c8.72,7.43,8.79,7.49,1.79,15.13-7.83,8.55-15.79,17-23.7,25.47-.49.53-1.09,1-2,1.74-2.29-2.47-4.54-4.74-6.58-7.2a2.68,2.68,0,0,1-.05-2.56C1095.18,655.23,1105.35,644.45,1115.63,633.51Z" transform="translate(-768 -348)"/><path class="cls-21" d="M1091.66,608.14a8.39,8.39,0,0,1,1.2.68c7.63,7.1,7.63,7.1.55,14.62-4.35,4.62-8.72,9.23-13.54,14.34-2.4-2.55-4.75-4.88-6.86-7.4a2.68,2.68,0,0,1,.2-2.59C1079.28,621.2,1085.45,614.72,1091.66,608.14Z" transform="translate(-768 -348)"/><path class="cls-22" d="M1068.19,650.34c-.81-.63-1.23-.89-1.57-1.23-7.59-7.35-7.48-8.57,1.59-15.34,2.12,2.16,4.4,4.26,6.35,6.63a3.28,3.28,0,0,1-.16,3.09C1072.57,645.83,1070.43,647.92,1068.19,650.34Z" transform="translate(-768 -348)"/><path class="cls-23" d="M858.1,609.58c-9.11-.16-9.82-1.1-7.55-10,1.39-5.43,1.67-5.59,7.11-3.79a22.21,22.21,0,0,1,3.46,1.41c2.89,1.54,5.35,3.51,4.66,7.25C865.15,607.92,862.33,609.66,858.1,609.58Z" transform="translate(-768 -348)"/><path class="cls-24" d="M853.61,631.41a66.68,66.68,0,0,1-8.14-1.75c-.86-.28-1.77-2.34-1.61-3.44a39.39,39.39,0,0,1,2.3-9,4.22,4.22,0,0,1,3.49-2.08,39.58,39.58,0,0,1,8.83,2.91c4.26,2,6,4.93,5.32,8C863,629.48,859.76,631.46,853.61,631.41Zm.32-3.66a12.77,12.77,0,0,0,3,0c1.1-.28,2.9-.81,3-1.42.19-1.43,0-3.75-.86-4.33a25.15,25.15,0,0,0-7.45-2.89,3.54,3.54,0,0,0-3.1,1.23c-2.38,4.07-.31,7.46,4.34,7.46Z" transform="translate(-768 -348)"/><path class="cls-25" d="M853.93,627.75h-1.12c-4.65,0-6.72-3.39-4.34-7.46a3.54,3.54,0,0,1,3.1-1.23A25.15,25.15,0,0,1,859,622c.9.58,1.05,2.9.86,4.33-.08.61-1.88,1.14-3,1.42A12.77,12.77,0,0,1,853.93,627.75Z" transform="translate(-768 -348)"/></svg>