<svg id="Layer_1" data-name="Layer 1" xmlns="http://www.w3.org/2000/svg" viewBox="0 0 384 384"><defs><style>.cls-1{fill:#fefefe;}.cls-2{fill:#030302;}.cls-3{fill:#efb830;}.cls-4{fill:#fdfdfd;}.cls-5{fill:#fd5c5c;}.cls-6{fill:#fa5d5d;}.cls-7{fill:#fe5c5c;}.cls-8{fill:#fcfcfc;}.cls-9{fill:#f3f3f3;}.cls-10{fill:#f8f3f3;}.cls-11{fill:#fcf7f7;}.cls-12{fill:#f7f7f7;}.cls-13{fill:#fbfbfb;}.cls-14{fill:#fdf9ef;}.cls-15{fill:#fefdfb;}.cls-16{fill:#fdf7e9;}.cls-17{fill:#f9e3ab;}.cls-18{fill:#030202;}.cls-19{fill:#fb5c5c;}</style></defs><title>BNB-STAKD Test</title><path class="cls-1" d="M1152,732H768V348h384ZM1049.85,618.13c.08.25.17.38.14.46a7.35,7.35,0,0,1-.41.95c-3.65,7-5.82,14.44-5.59,22.44,0,1.5-.08,3,0,4.5.17,2.27.44,4.55.75,6.81a16.26,16.26,0,0,0,.72,1.94,50.63,50.63,0,0,0,9.67,18.48,48,48,0,0,0,21.31,14.55,38.71,38.71,0,0,0,10.6,2.36c4.24.2,8.51.46,12.84-.47a58.77,58.77,0,0,0,9.81-2.64,47,47,0,0,0,21.89-17.41c5.17-7.81,8.61-16.45,8.4-26.12,0-2,.09-4,0-6s0-4.24-.84-6c-.92-2-1.12-4.25-2-6.31s-2-4.18-2.92-6.29c-.5-1.14-1.06-2.25-1.55-3.3l1.29-2.45c.22-2.2-.08-4.7.65-7.25a18,18,0,0,0,.07-6.71c-.26-2.26.74-4.27.83-6.44.15-3.65-.11-7.27.57-11,.76-4.16,0-8.51.81-12.8.67-3.69-.26-7.53.74-11.32.55-2.11,0-4.48.13-6.72s.5-4.54.71-6.82c.31-3.39-.38-6.79.65-10.22.61-2.06.3-4.48.06-6.71s.9-4.5.82-6.82,0-4.49,0-6.68c-.27-.32-.63-.56-.73-.88a4.56,4.56,0,0,0-4.28-3.21c-3.27-.29-6.53-.33-9.82-.71-6.1-.7-12.26.12-18.44-.72-6.56-.89-13.29.41-19.93-.82-2.42-.45-5,0-7.49-.08-3.75-.12-7.58.59-11.31-1.05V503c0-17.49,0-35,0-52.49a6.17,6.17,0,0,0-2.9-5.78,18.14,18.14,0,0,0-1.8-.84h-6.73c.8-7.63,4.36-13.71,9.35-19.44-.84-2.62-3.34-4-5.12-6-.94-1-1.69-2.58-4-2.19-.89,1.17-2,2.61-3.07,4a44.91,44.91,0,0,0-8.41,17.53c-.49,2-.12,4.32-1.74,6.14-1.9,0-3.89.06-5.88,0a5.4,5.4,0,0,0-4.39,2.06,18.48,18.48,0,0,0-1.47,2.44V505.3c-.24.1-.34.19-.45.19h-14.24c-1.68,0-3.4.2-4.84-1.33.52-1.73-.24-3.42-.56-5.19s-.13-3.78-.7-5.71-.14-4-.75-6.07c-.56-1.89-.19-4-.76-6.06-.53-1.91-.19-4-.74-6.06-.5-1.91-.25-4-.76-6.06s-.32-4-.75-6.06a75.29,75.29,0,0,1-.85-9.41c0-.25.11-.61,0-.74-1.13-1.12-.85-2.56-.67-3.82.22-1.56-.73-2.76-.82-4.19-.21-3.15-.49-6.3-.74-9.44,0-.25.1-.62,0-.73-1.39-1.22-.44-2.82-.72-4.21s-.53-2.74-.83-4.24c.51-.07.85-.14,1.19-.18,2.19-.2,6.82-1.57,7.88-2.67,3.24-3.34,7.15-6.1,7.82-11.4.43-3.35.52-7.64-.84-10.88a18.07,18.07,0,0,0-2.9-4.44c-4.1-5-9.31-6.7-15.66-6.67-30.75.14-61.49.06-92.23.06q-34.3,0-68.61,0a15.29,15.29,0,0,0-8.4,2.33,21.77,21.77,0,0,0-5.46,4.94,17.23,17.23,0,0,0-3.41,9.1,16.68,16.68,0,0,0,.6,6.47,13.87,13.87,0,0,0,3.22,6.18c2.48,2.49,4.81,5.16,8,6.21v73.95a15.93,15.93,0,0,1-3.89,1c-2.92,0-5.46,1.75-8.37,1.58-7.14,3-14.75,4.76-21.53,8.69-3,1.73-6.33,2.88-8.08,6.18.08,1.55-.19,3.08.71,4.59,1.72,2.89,3,6,4.83,8.85,2.32,3.52,4.25,7.26,6.4,10.87,1.14,1.91,2.3,3.55,3.87,4.1,3.12.7,5.27-.42,7.33-1.6a66.16,66.16,0,0,1,18.77-7.18v5.81c-3.89,1.37-7.92,2.51-11.72,4.18a63.22,63.22,0,0,0-16.28,10.38,74.64,74.64,0,0,0-10.76,11.2,76.37,76.37,0,0,0-7.58,11.89c-2.9,6-5.43,12.12-6.07,18.85-1.37,1.72-.12,3.94-.93,5.61-1,2.07-.52,4.12-.51,6.14,0,3.77-.49,7.57.63,11.33.6,2,.11,4.47.94,6.36s.8,4.07,1.85,6a38,38,0,0,1,2.36,6.12,39.68,39.68,0,0,0,4.67,9.32c2,3,3.72,6.14,6.14,8.67,3.57,3.73,7,7.61,11.23,10.75a74.32,74.32,0,0,0,11.9,7.54c5.25,2.55,8.91,4.44,18.85,6.08,1.69,1.45,3.91.11,5.6,1,1.94,1,3.87.55,5.77.49,3.52-.1,7,.3,10.6-.54,2.84-.66,5.82-1,8.73-1.59a75,75,0,0,0,14.1-4.91,35,35,0,0,0,5.17-2.9c3.25-2.15,6.74-4.06,9.56-6.69,3.77-3.53,7.66-7,10.74-11.23a96.12,96.12,0,0,0,7.65-12.22A67.41,67.41,0,0,0,921,632.21a51,51,0,0,0,2.17-10c.14-1.55,0-3.1,1.11-4.08H954v25.3c1.43,3.77,4.11,4.6,7.59,4.57,12.11-.13,24.23,0,35.9,0,3.64-1.43,4.66-3.9,4.57-7.3-.17-6.62,0-13.24,0-19.87,0-1,.07-1.9.11-2.7Z" transform="translate(-768 -348)"/><path class="cls-2" d="M1049.85,618.13h-47.73c0,.8-.11,1.75-.11,2.7,0,6.63-.13,13.25,0,19.87.09,3.4-.93,5.87-4.57,7.3-11.67,0-23.79-.08-35.9,0-3.48,0-6.16-.8-7.59-4.57v-25.3H924.32c-1.09,1-1,2.53-1.11,4.08a51,51,0,0,1-2.17,10,67.41,67.41,0,0,1-4.49,11.65,96.12,96.12,0,0,1-7.65,12.22c-3.08,4.26-7,7.7-10.74,11.23-2.82,2.63-6.31,4.54-9.56,6.69a35,35,0,0,1-5.17,2.9,75,75,0,0,1-14.1,4.91c-2.91.63-5.89.93-8.73,1.59-3.58.84-7.08.44-10.6.54-1.9.06-3.83.47-5.77-.49-1.69-.84-3.91.5-5.6-1-9.94-1.64-13.6-3.53-18.85-6.08a74.32,74.32,0,0,1-11.9-7.54c-4.22-3.14-7.66-7-11.23-10.75-2.42-2.53-4.18-5.71-6.14-8.67a39.68,39.68,0,0,1-4.67-9.32,38,38,0,0,0-2.36-6.12c-1.05-1.93-1-4-1.85-6s-.34-4.32-.94-6.36c-1.12-3.76-.62-7.56-.63-11.33,0-2-.5-4.07.51-6.14.81-1.67-.44-3.89.93-5.61.64-6.73,3.17-12.89,6.07-18.85a76.37,76.37,0,0,1,7.58-11.89,74.64,74.64,0,0,1,10.76-11.2,63.22,63.22,0,0,1,16.28-10.38c3.8-1.67,7.83-2.81,11.72-4.18v-5.81a66.16,66.16,0,0,0-18.77,7.18c-2.06,1.18-4.21,2.3-7.33,1.6-1.57-.55-2.73-2.19-3.87-4.1-2.15-3.61-4.08-7.35-6.4-10.87-1.84-2.8-3.11-6-4.83-8.85-.9-1.51-.63-3-.71-4.59,1.75-3.3,5.08-4.45,8.08-6.18,6.78-3.93,14.39-5.7,21.53-8.69,2.91.17,5.45-1.59,8.37-1.58a15.93,15.93,0,0,0,3.89-1V425.22c-3.19-1.05-5.52-3.72-8-6.21a13.87,13.87,0,0,1-3.22-6.18,16.68,16.68,0,0,1-.6-6.47,17.23,17.23,0,0,1,3.41-9.1,21.77,21.77,0,0,1,5.46-4.94,15.29,15.29,0,0,1,8.4-2.33q34.3,0,68.61,0c30.74,0,61.48.08,92.23-.06,6.35,0,11.56,1.69,15.66,6.67a18.07,18.07,0,0,1,2.9,4.44c1.36,3.24,1.27,7.53.84,10.88-.67,5.3-4.58,8.06-7.82,11.4-1.06,1.1-5.69,2.47-7.88,2.67-.34,0-.68.11-1.19.18.3,1.5.56,2.87.83,4.24s-.67,3,.72,4.21c.13.11,0,.48,0,.73.25,3.14.53,6.29.74,9.44.09,1.43,1,2.63.82,4.19-.18,1.26-.46,2.7.67,3.82.13.13,0,.49,0,.74a75.29,75.29,0,0,0,.85,9.41c.43,2.05.26,4.13.75,6.06s.26,4.15.76,6.06c.55,2.06.21,4.15.74,6.06.57,2.06.2,4.17.76,6.06.61,2.06.19,4.17.75,6.07s.37,3.83.7,5.71,1.08,3.46.56,5.19c1.44,1.53,3.16,1.34,4.84,1.33h14.24c.11,0,.21-.09.45-.19V448.48a18.48,18.48,0,0,1,1.47-2.44,5.4,5.4,0,0,1,4.39-2.06c2,.08,4,0,5.88,0,1.62-1.82,1.25-4.14,1.74-6.14a44.91,44.91,0,0,1,8.41-17.53c1.11-1.4,2.18-2.84,3.07-4,2.28-.39,3,1.17,4,2.19,1.78,1.94,4.28,3.35,5.12,6-5,5.73-8.55,11.81-9.35,19.44h6.73a18.14,18.14,0,0,1,1.8.84,6.17,6.17,0,0,1,2.9,5.78c-.06,17.5,0,35,0,52.49v3.66c3.73,1.64,7.56.93,11.31,1.05,2.5.07,5.07-.37,7.49.08,6.64,1.23,13.37-.07,19.93.82,6.18.84,12.34,0,18.44.72,3.29.38,6.55.42,9.82.71a4.56,4.56,0,0,1,4.28,3.21c.1.32.46.56.73.88,0,2.19-.06,4.44,0,6.68s-1.08,4.44-.82,6.82.55,4.65-.06,6.71c-1,3.43-.34,6.83-.65,10.22-.21,2.28-.59,4.54-.71,6.82s.42,4.61-.13,6.72c-1,3.79-.07,7.63-.74,11.32-.78,4.29-.05,8.64-.81,12.8-.68,3.7-.42,7.32-.57,11-.09,2.17-1.09,4.18-.83,6.44a18,18,0,0,1-.07,6.71c-.73,2.55-.43,5-.65,7.25l-1.29,2.45c.49,1,1,2.16,1.55,3.3.93,2.11,2,4.14,2.92,6.29s1,4.27,2,6.31c.81,1.77.72,4,.84,6s0,4,0,6c.21,9.67-3.23,18.31-8.4,26.12a47,47,0,0,1-21.89,17.41,58.77,58.77,0,0,1-9.81,2.64c-4.33.93-8.6.67-12.84.47a38.71,38.71,0,0,1-10.6-2.36,48,48,0,0,1-21.31-14.55,50.63,50.63,0,0,1-9.67-18.48,16.26,16.26,0,0,1-.72-1.94c-.31-2.26-.58-4.54-.75-6.81-.11-1.49,0-3,0-4.5-.23-8,1.94-15.4,5.59-22.44a7.35,7.35,0,0,0,.41-.95C1050,618.51,1049.93,618.38,1049.85,618.13Zm-259.4,6.94a29,29,0,0,0,.87,5.65c.79,2.17,1.46,4.43,2.4,6.5a75.09,75.09,0,0,0,12.66,19.48c1.29,1.42,3.18,2.31,4.39,3.78,2.83,3.45,6.8,5.38,10.39,7.63a51.5,51.5,0,0,0,19.71,7.09l.88,1.25h21.92l1.08-1.08c1.6-.44,2.82-.88,4.08-1.1a47.2,47.2,0,0,0,9.61-3.07c4.12-1.67,7.71-4.36,11.46-6.72a14.91,14.91,0,0,0,2.06-1.35c1.11-1,2.13-2.1,3.19-3.16s2.32-2.27,3.44-3.45c.93-1,2-1.76,3-2.79a56.09,56.09,0,0,0,8.08-12.07,57.24,57.24,0,0,0,5.61-17l1.23-1V601.84L915,600.41c-.26-1.93,0-4.19-.9-5.89-1.55-3-2.1-6.39-3.79-9.31-1.28-2.21-2.34-4.57-3.75-6.68-2.61-3.9-5.25-7.84-8.78-10.95a39.07,39.07,0,0,1-3.59-3c-2.92-3.27-6.87-5.08-10.46-7.37a30,30,0,0,0-10.13-4.5,9.23,9.23,0,0,1-2.39-1.25l-6.33-1.14-.45-1.32H841.65l-.94,1.19c-1.75.44-3,.69-4.26,1.07-3.09,1-6.23,1.84-9.24,3-4.26,1.67-8,4.4-11.76,6.89a11.4,11.4,0,0,0-2.32,1.61c-3,3.32-6.72,5.85-9.53,9.39a83.47,83.47,0,0,0-6.38,9.36,61.57,61.57,0,0,0-7,19.13l-1.15.24v22.78ZM977.87,564V531.3l-19.93-12c-1.54,3.84-3,7.37-4.44,11.09-3.39-2.18-7.65-2.52-10.89-5.07,4-10.07,7.95-19.88,11.9-29.78,3.55,2.13,7.65,2.6,10.77,4.95-.36,2.86-2.75,4.94-2.18,7.92,4.88,2.83,9.44,6.06,14.68,8.51a8.89,8.89,0,0,0,.21-1.31c0-2.37.63-5-.16-7.06-.88-2.32.26-4.88-1.33-6.93A58.13,58.13,0,0,0,975,489.91c-.33-1.76.05-3.52-.65-5.36s-.15-3.74-.79-5.67c-.58-1.76,0-3.74-.7-5.7-.59-1.72-.2-3.76-.83-5.66-.57-1.67.17-3.48-.67-5.35-.72-1.62-.12-3.73-.8-5.66-.63-1.75.07-3.73-.71-5.7-.67-1.68-.14-3.74-.79-5.67-.6-1.76,0-3.74-.71-5.7-.61-1.71-.54-3.77-.74-5.66a44.63,44.63,0,0,0-1.23-7.67H870.17v73.57c2.1-.9,3.75,1.47,5.83.25,0-6.44,0-12.92,0-19.4,0-2.77.76-4.94,3.57-6,.21-.08.36-.34.58-.56,8.69,0,17.43,0,26.17,0,2.44,0,5.36,1.89,5.57,4.15.14,1.48.69,2.77.94,4.17.63,3.44,1.45,6.86,2.41,10.23,1.28,4.48,2.27,9,3.51,13.53,1,3.6,1.72,7.26,2.79,10.84.54,1.8.77,3.69,1.15,5.61a60,60,0,0,1,4.9,4.21c4.19,4.36,8.76,8.34,12.56,13.11,2.24,2.81,4.24,5.76,6.38,8.63,3.79,5.06,6.52,10.72,9.49,16.41,2.67-1.22,5.5-.89,8.29-.9Zm93.78,34.3c-1.42-1.79-2.75-3.36-4-5a27.4,27.4,0,0,1-5.53-15.27c-.25-6.36-.82-12.79.51-19.19a35.21,35.21,0,0,1,2.16-7,27.83,27.83,0,0,1,13-14.08,30.35,30.35,0,0,1,13.81-3.73c10.62-.1,21.24,0,31.85,0h3.67c.41-4-.57-7.84,1-11.45l-1.13-1.19c-6.58-.56-13.21.26-19.86-.73-6.05-.91-12.25.11-18.43-.74s-12.75.14-19.17-.78c-5.94-.86-12,.35-18.06-.74-3.63-.65-7.47,0-11.22-.15s-7.54-.74-11.3-.67c-10.16.21-20.26-1.38-30.42-.81a2.83,2.83,0,0,1-1.46-.08c-2.33-1.32-4.71-.42-7-.56V564h6.58l3.53,1.72,1.86,3.66V605.9h59C1063.72,602.36,1068.17,601,1071.65,598.3ZM811.93,531c.57,0,1,.14,1.31,0a52.9,52.9,0,0,1,10.58-4.3,49.45,49.45,0,0,1,9.86-2.57c1.62-.18,3.48-.1,4.9-.73,2-.86,3.84-.41,5.74-.63a44.65,44.65,0,0,1,6.06-.7c4.4.09,8.79.45,13.18.7.25,0,.64-.1.73,0,.84,1.11,2,.58,3.08.75s2.29.56,3.45.71a31.12,31.12,0,0,1,5.44,1.35c4.08,1.31,8.08,2.74,12,4.4a85.48,85.48,0,0,1,12.6,6.73c3.46,2.18,6.45,5,9.72,7.34,5,3.6,8.67,8.34,12.47,12.9,2.79,3.35,5.6,6.95,7,11.28,3.08,3.23,4.2,7.56,5.72,11.49,1.78,4.63,3.88,9.34,3.92,14.5,1.47,1.39.12,3.39,1,4.83,1,1.66.25,3.38.5,5.05a15,15,0,0,1,0,1.91c4.42,0,8.59,0,12.71,0,.37-3.56-1.26-6.6-.71-9.81a.79.79,0,0,0-.06-.34c-1.59-3.43-1.66-7.25-2.76-10.84a107.17,107.17,0,0,0-4.75-13.41c-2-4.31-4.22-8.51-6.56-12.67-3.32-5.89-7.6-11-12-16a93.77,93.77,0,0,0-9.61-9.17A79.46,79.46,0,0,0,903,523.57c-11.75-6.22-16.45-8.58-30.16-11.32-3.73-1.85-7.92-1.2-11.83-2.16-2-.5-4.23-.09-6.35-.09s-4.5,0-6.75,0c-2.09,0-4.34-.3-6.22.37-2.09.74-4.43-.47-6.28,1.12-1.84-.28-3.54.56-5.31.7s-3.35,1.18-5,1.47c-6.38,1.13-12,4.33-18,6.41-.4.14-.67.64-.91.89C808.15,524.42,810,527.65,811.93,531Zm22.22-125.46c-.56,4.33.57,7,4.36,8.46h161.57c2.33,0,4.57.08,6.39-1.82s1.59-3.93,1.51-5.72c-1.41-3.57-3.87-4.52-7.27-4.52q-78.93.1-157.86.05H837.7ZM1126.5,546.25a3.66,3.66,0,0,0-.85-.24h-36a8.13,8.13,0,0,0-1.85.07c-4.21,1-9.52,4.93-11.53,8.76-1.36,2.6-2.48,5.28-2.34,8.42.2,4.87.14,9.75,0,14.62a11.8,11.8,0,0,0,1.14,4.79,19.38,19.38,0,0,0,7.68,9,15.72,15.72,0,0,0,6.15,2.23c3,.43,6,.2,9.08.69a43.09,43.09,0,0,1,8,1.71c3.25,1.17,6.66,2,9.53,4.19a65.63,65.63,0,0,0,7.27,4.28v-4.29c0-1.13-.34-2.4.06-3.35,1.29-3,.36-6,.79-9.25h-31.47V576H1124c.81-4,1.42-8,.82-12.08h-32.63v-12h33.33Zm-34.77,139.33c11.33-.51,21.49-4.05,29.82-12A42.68,42.68,0,0,0,1062.46,612c-8.55,8.16-12.71,18.42-13.15,30.1a42,42,0,0,0,6,22.57,40.31,40.31,0,0,0,14.91,14.85A47.92,47.92,0,0,0,1091.73,685.58ZM979,426.08c-.75,1.79.25,3.3.47,4.92.39,2.87.24,5.84.89,8.64.47,2.05.19,4.17.79,6a8.71,8.71,0,0,1,.55,3.84c-.22,1.56.78,2.76.82,4.19,0,1.22-.23,2.64.31,3.6.69,1.25.36,2.41.39,3.58s.62,2.35.69,3.44c.23,3.71,1,7.32,1.56,11,.45,3.11.54,6.27.79,9.41,0,.25-.11.61,0,.73,1.13,1.12.56,2.54.74,3.82s.56,2.54.72,3.82-.23,2.88.34,4c.72,1.38.12,2.67.44,3.94s.66,2.47,1,3.67h11c0-1.18.38-2.48-.07-3.34-1.38-2.56-.2-5.41-1.3-8.07-.73-1.77-.18-4-.76-6s-.17-4.25-.78-6.42c-.5-1.79-.11-3.76-.75-5.68-.59-1.76-.07-3.73-.7-5.69s-.35-4.24-.76-6.41-.45-4.26-.82-6.41c-.32-1.87-.19-3.77-.71-5.69s-.07-3.77-.76-5.69c-.47-1.32.37-3.17-.21-4.4a6.47,6.47,0,0,1-.57-3.85c.23-1.57-.87-2.75-.81-4.19a13.18,13.18,0,0,0-1-6.7ZM857.88,497.93V426h-6.07c-1.94,0-3.9-.07-5.69.05v71.88ZM846.08,540c2.41,0,4.54-.15,6.65,0s4.24-.44,6.5.56c1.72.75,4,.41,6,.8,2.89.55,5.73,1.24,8.54,2.06a68.62,68.62,0,0,1,13.59,6.07,85,85,0,0,1,10,6.77,64,64,0,0,1,9.83,9.48,54.33,54.33,0,0,1,6.26,9,80.08,80.08,0,0,1,6.75,14.45c1.68,5.16,3.09,10.41,3.15,15.79l1,1c1.8-.07,3.73.11,5.68-.12-.56-3.23-1-6.16-1.58-9.06-.74-3.42-1.21-7-2.59-10.16-2-4.55-3.66-9.2-6.24-13.56-3.57-6-8.06-11.22-12.5-16.52-.9-1.08-2.37-1.67-3.34-2.7a43.23,43.23,0,0,0-8.17-6.56c-3.51-2.29-7-4.72-10.89-6.27-3.29-1.33-6.68-2.59-10.09-3.7a90.73,90.73,0,0,0-15.86-3.24c-4.14-.59-8.42-.12-12.72-.12Zm209.79-32.95V456h-6.06c-1.94,0-3.9-.07-5.81.05v49.84C1048,507.67,1051.92,506.75,1055.87,507.05ZM888.11,503.7a3.76,3.76,0,0,0,.49.3c4.9,2,9.82,4,14.7,6,1.41.59,2.7,1.44,4.63,2.5-2.32-9.28-4.46-17.86-6.61-26.45H888.11Zm101.76,84.24V576H966.59a.7.7,0,0,0-.33.12c-.1.06-.18.17-.13.12v11.7Zm-23.8,23.94H990c0-2.1,0-4.08,0-6.06a51,51,0,0,0-.09-5.7H966.07Zm23.8,24.06V624H966.58a.55.55,0,0,0-.32.12c-.1.06-.18.17-.13.12v11.69Z" transform="translate(-768 -348)"/><path class="cls-3" d="M790.45,625.07l-1.38-1.38V600.91l1.15-.24a61.57,61.57,0,0,1,7-19.13,83.47,83.47,0,0,1,6.38-9.36c2.81-3.54,6.54-6.07,9.53-9.39a11.4,11.4,0,0,1,2.32-1.61c3.81-2.49,7.5-5.22,11.76-6.89,3-1.19,6.15-2.06,9.24-3,1.24-.38,2.51-.63,4.26-1.07l.94-1.19h22.82l.45,1.32,6.33,1.14a9.23,9.23,0,0,0,2.39,1.25,30,30,0,0,1,10.13,4.5c3.59,2.29,7.54,4.1,10.46,7.37a39.07,39.07,0,0,0,3.59,3c3.53,3.11,6.17,7,8.78,10.95,1.41,2.11,2.47,4.47,3.75,6.68,1.69,2.92,2.24,6.3,3.79,9.31.87,1.7.64,4,.9,5.89l1.43,1.43v21.88l-1.23,1a57.24,57.24,0,0,1-5.61,17,56.09,56.09,0,0,1-8.08,12.07c-.93,1-2,1.81-3,2.79-1.12,1.18-2.29,2.3-3.44,3.45s-2.08,2.17-3.19,3.16a14.91,14.91,0,0,1-2.06,1.35c-3.75,2.36-7.34,5-11.46,6.72a47.2,47.2,0,0,1-9.61,3.07c-1.26.22-2.48.66-4.08,1.1l-1.08,1.08H841.75l-.88-1.25a51.5,51.5,0,0,1-19.71-7.09c-3.59-2.25-7.56-4.18-10.39-7.63-1.21-1.47-3.1-2.36-4.39-3.78a75.09,75.09,0,0,1-12.66-19.48c-.94-2.07-1.61-4.33-2.4-6.5A29,29,0,0,1,790.45,625.07ZM855,633h-4.5c-.09-.46,0-1.09-.28-1.36-3.63-3.57-7.31-7.1-11-10.64.18-1.15-.43-1.82-1.58-2.34-4,2.16-6.58,5.93-10,9.08a45.15,45.15,0,0,0,3,3.82c6.94,7,13.93,14,20.91,20.94h2.24q10.47-10.47,20.94-20.92a8.44,8.44,0,0,0,2.72-4.26c-3.44-2.74-5.76-6.89-10.44-8.88l-.84,2.56c-.69.56-1.42,1.07-2,1.69-2.91,2.87-5.81,5.76-8.66,8.69C855.19,631.75,855.17,632.45,855,633Zm21.73-36.39q-11.79-11.8-23.56-23.55c-.07-.07-.23,0-.35-.06h-.09l-24,24c0,.2-.16.72,0,.92,2.55,2.72,5.14,5.39,7.72,8.06h1.68c4.65-4.65,9.4-9.41,14.16-14.15.07-.07.23,0,.35-.06h.3L867.22,606h1.59l7.92-7.9Zm-15,16.15c-.67-2.35-2.89-3.12-4.34-4.58s-2.38-3.86-4.55-4.41c-2.53.57-3.24,2.85-4.71,4.29s-3.86,2.38-4.41,4.55c.57,2.53,2.85,3.24,4.29,4.71s2.38,3.86,4.84,4.48c3.1-1.76,4.46-5.51,7.84-7C861.23,614.59,861.37,613.61,861.78,612.76Zm-48.48-.1,8.61,8.6,9-9c-2.87-2.68-5.67-5.92-8.71-8.48Zm61.53,0,8.58,8.57,9-9c-2.87-2.68-5.67-5.92-8.69-8.46Z" transform="translate(-768 -348)"/><path class="cls-4" d="M977.87,564H964.29c-2.79,0-5.62-.32-8.29.9-3-5.69-5.7-11.35-9.49-16.41-2.14-2.87-4.14-5.82-6.38-8.63-3.8-4.77-8.37-8.75-12.56-13.11a60,60,0,0,0-4.9-4.21c-.38-1.92-.61-3.81-1.15-5.61-1.07-3.58-1.79-7.24-2.79-10.84-1.24-4.49-2.23-9-3.51-13.53-1-3.37-1.78-6.79-2.41-10.23-.25-1.4-.8-2.69-.94-4.17-.21-2.26-3.13-4.15-5.57-4.15-8.74,0-17.48,0-26.17,0-.22.22-.37.48-.58.56-2.81,1-3.59,3.2-3.57,6,0,6.48,0,13,0,19.4-2.08,1.22-3.73-1.15-5.83-.25V426.11h96.24a44.63,44.63,0,0,1,1.23,7.67c.2,1.89.13,4,.74,5.66.7,2,.11,3.94.71,5.7.65,1.93.12,4,.79,5.67.78,2,.08,3.95.71,5.7.68,1.93.08,4,.8,5.66.84,1.87.1,3.68.67,5.35.63,1.9.24,3.94.83,5.66.66,2,.12,3.94.7,5.7.64,1.93.14,4,.79,5.67s.32,3.6.65,5.36a58.13,58.13,0,0,1,1.47,11.75c1.59,2,.45,4.61,1.33,6.93.79,2.08.18,4.69.16,7.06a8.89,8.89,0,0,1-.21,1.31c-5.24-2.45-9.8-5.68-14.68-8.51-.57-3,1.82-5.06,2.18-7.92-3.12-2.35-7.22-2.82-10.77-4.95-4,9.9-7.88,19.71-11.9,29.78,3.24,2.55,7.5,2.89,10.89,5.07,1.48-3.72,2.9-7.25,4.44-11.09l19.93,12Z" transform="translate(-768 -348)"/><path class="cls-5" d="M1071.65,598.3c-3.48,2.73-7.93,4.06-10.59,7.6h-59V569.37l-1.86-3.66L996.7,564h-6.58V516.1c2.25.14,4.63-.76,7,.56a2.83,2.83,0,0,0,1.46.08c10.16-.57,20.26,1,30.42.81,3.76-.07,7.53.55,11.3.67s7.59-.5,11.22.15c6,1.09,12.12-.12,18.06.74,6.42.92,12.87-.1,19.17.78s12.38-.17,18.43.74c6.65,1,13.28.17,19.86.73l1.13,1.19c-1.55,3.61-.57,7.46-1,11.45h-3.67c-10.61,0-21.23-.07-31.85,0a30.35,30.35,0,0,0-13.81,3.73,27.83,27.83,0,0,0-13,14.08,35.21,35.21,0,0,0-2.16,7c-1.33,6.4-.76,12.83-.51,19.19a27.4,27.4,0,0,0,5.53,15.27C1068.9,594.94,1070.23,596.51,1071.65,598.3Zm-63.59-58.43H1032c0-2.1,0-4.08,0-6.06s.07-3.9,0-5.68h-23.9Zm23.88,6.13H1008c0,2.23,0,4.21,0,6.19s-.07,3.9,0,5.81h23.89Zm-23.88,30H1032c0-2.23,0-4.21,0-6.19s.07-3.9,0-5.81h-23.89Z" transform="translate(-768 -348)"/><path class="cls-6" d="M811.93,531c-1.93-3.35-3.78-6.58-5.76-10,.24-.25.51-.75.91-.89,6-2.08,11.6-5.28,18-6.41,1.66-.29,3.19-1.31,5-1.47s3.47-1,5.31-.7c1.85-1.59,4.19-.38,6.28-1.12,1.88-.67,4.13-.33,6.22-.37,2.25,0,4.5,0,6.75,0s4.35-.41,6.35.09c3.91,1,8.1.31,11.83,2.16,13.71,2.74,18.41,5.1,30.16,11.32a79.46,79.46,0,0,1,14.58,10.17,93.77,93.77,0,0,1,9.61,9.17c4.36,5,8.64,10.1,12,16,2.34,4.16,4.57,8.36,6.56,12.67A107.17,107.17,0,0,1,950.43,585c1.1,3.59,1.17,7.41,2.76,10.84a.79.79,0,0,1,.06.34c-.55,3.21,1.08,6.25.71,9.81-4.12.06-8.29,0-12.71,0a15,15,0,0,0,0-1.91c-.25-1.67.5-3.39-.5-5.05-.87-1.44.48-3.44-1-4.83,0-5.16-2.14-9.87-3.92-14.5-1.52-3.93-2.64-8.26-5.72-11.49-1.42-4.33-4.23-7.93-7-11.28-3.8-4.56-7.5-9.3-12.47-12.9-3.27-2.37-6.26-5.16-9.72-7.34A85.48,85.48,0,0,0,888.3,530c-4-1.66-8-3.09-12-4.4a31.12,31.12,0,0,0-5.44-1.35c-1.16-.15-2.29-.53-3.45-.71s-2.24.36-3.08-.75c-.09-.12-.48,0-.73,0-4.39-.25-8.78-.61-13.18-.7a44.65,44.65,0,0,0-6.06.7c-1.9.22-3.78-.23-5.74.63-1.42.63-3.28.55-4.9.73a49.45,49.45,0,0,0-9.86,2.57,52.9,52.9,0,0,0-10.58,4.3C813,531.14,812.5,531,811.93,531Z" transform="translate(-768 -348)"/><path class="cls-7" d="M834.15,405.54,837.7,402h5.15q78.93,0,157.86-.05c3.4,0,5.86.95,7.27,4.52.08,1.79.22,3.93-1.51,5.72s-4.06,1.83-6.39,1.82H838.51C834.72,412.53,833.59,409.87,834.15,405.54Z" transform="translate(-768 -348)"/><path class="cls-8" d="M1126.5,546.25l-1,5.63h-33.33v12h32.63c.6,4.12,0,8-.82,12.08h-31.86v11.9h31.47c-.43,3.25.5,6.26-.79,9.25-.4,1-.06,2.22-.06,3.35v4.29a65.63,65.63,0,0,1-7.27-4.28c-2.87-2.21-6.28-3-9.53-4.19a43.09,43.09,0,0,0-8-1.71c-3-.49-6.09-.26-9.08-.69a15.72,15.72,0,0,1-6.15-2.23,19.38,19.38,0,0,1-7.68-9,11.8,11.8,0,0,1-1.14-4.79c.14-4.87.2-9.75,0-14.62-.14-3.14,1-5.82,2.34-8.42,2-3.83,7.32-7.73,11.53-8.76a8.13,8.13,0,0,1,1.85-.07h36A3.66,3.66,0,0,1,1126.5,546.25Z" transform="translate(-768 -348)"/><path class="cls-9" d="M1091.73,685.58a47.92,47.92,0,0,1-21.52-6.1,40.31,40.31,0,0,1-14.91-14.85,42,42,0,0,1-6-22.57c.44-11.68,4.6-21.94,13.15-30.1a42.68,42.68,0,0,1,59.09,61.59C1113.22,681.53,1103.06,685.07,1091.73,685.58Zm1.24-5.29a37.61,37.61,0,0,0,24.87-10.53,36.61,36.61,0,0,0,11.6-25.91A37.39,37.39,0,0,0,1065.89,616a37.07,37.07,0,0,0-11.35,26c-.22,5.46.41,9.16,3.81,17.15a32.22,32.22,0,0,0,6.74,9.59,37.87,37.87,0,0,0,13.55,8.94A38.63,38.63,0,0,0,1093,680.29Z" transform="translate(-768 -348)"/><path class="cls-10" d="M979,426.08h11.47a13.18,13.18,0,0,1,1,6.7c-.06,1.44,1,2.62.81,4.19a6.47,6.47,0,0,0,.57,3.85c.58,1.23-.26,3.08.21,4.4.69,1.92.27,3.89.76,5.69s.39,3.82.71,5.69c.37,2.15.42,4.33.82,6.41s.12,4.44.76,6.41.11,3.93.7,5.69c.64,1.92.25,3.89.75,5.68.61,2.17.21,4.41.78,6.42s0,4.27.76,6c1.1,2.66-.08,5.51,1.3,8.07.45.86.07,2.16.07,3.34h-11c-.33-1.2-.69-2.43-1-3.67s.28-2.56-.44-3.94c-.57-1.09-.18-2.64-.34-4s-.53-2.54-.72-3.82.39-2.7-.74-3.82c-.13-.12,0-.48,0-.73-.25-3.14-.34-6.3-.79-9.41-.54-3.66-1.33-7.27-1.56-11-.07-1.09-.66-2.21-.69-3.44s.3-2.33-.39-3.58c-.54-1-.28-2.38-.31-3.6,0-1.43-1-2.63-.82-4.19a8.71,8.71,0,0,0-.55-3.84c-.6-1.86-.32-4-.79-6-.65-2.8-.5-5.77-.89-8.64C979.24,429.38,978.24,427.87,979,426.08Z" transform="translate(-768 -348)"/><path class="cls-11" d="M857.88,497.93H846.12V426.05c1.79-.12,3.75,0,5.69-.05h6.07Z" transform="translate(-768 -348)"/><path class="cls-12" d="M846.08,540v-6c4.3,0,8.58-.47,12.72.12a90.73,90.73,0,0,1,15.86,3.24c3.41,1.11,6.8,2.37,10.09,3.7,3.85,1.55,7.38,4,10.89,6.27a43.23,43.23,0,0,1,8.17,6.56c1,1,2.44,1.62,3.34,2.7,4.44,5.3,8.93,10.49,12.5,16.52,2.58,4.36,4.26,9,6.24,13.56,1.38,3.16,1.85,6.74,2.59,10.16.61,2.9,1,5.83,1.58,9.06-1.95.23-3.88.05-5.68.12l-1-1c-.06-5.38-1.47-10.63-3.15-15.79a80.08,80.08,0,0,0-6.75-14.45,54.33,54.33,0,0,0-6.26-9,64,64,0,0,0-9.83-9.48,85,85,0,0,0-10-6.77,68.62,68.62,0,0,0-13.59-6.07c-2.81-.82-5.65-1.51-8.54-2.06-2-.39-4.3,0-6-.8-2.26-1-4.36-.36-6.5-.56S848.49,540,846.08,540Z" transform="translate(-768 -348)"/><path class="cls-5" d="M1055.87,507.05c-3.95-.3-7.88.62-11.87-1.16V456.05c1.91-.12,3.87,0,5.81-.05h6.06Z" transform="translate(-768 -348)"/><path class="cls-13" d="M888.11,503.7V486.07h13.21c2.15,8.59,4.29,17.17,6.61,26.45-1.93-1.06-3.22-1.91-4.63-2.5-4.88-2-9.8-4-14.7-6A3.76,3.76,0,0,1,888.11,503.7Z" transform="translate(-768 -348)"/><path class="cls-1" d="M989.87,587.94H966.13v-11.7s0-.06.13-.12a.7.7,0,0,1,.33-.12h23.28Z" transform="translate(-768 -348)"/><path class="cls-1" d="M966.07,611.88V600.12H989.9a51,51,0,0,1,.09,5.7c0,2,0,4,0,6.06Z" transform="translate(-768 -348)"/><path class="cls-1" d="M989.87,635.94H966.13V624.25s0-.06.13-.12a.55.55,0,0,1,.32-.12h23.29Z" transform="translate(-768 -348)"/><path class="cls-14" d="M876.73,596.61v1.48l-7.92,7.9h-1.59L853,591.75h-.3c-.12,0-.28,0-.35.06-4.76,4.74-9.51,9.5-14.16,14.15h-1.68c-2.58-2.67-5.17-5.34-7.72-8.06-.18-.2,0-.72,0-.92l24-24h.09c.12,0,.28,0,.35.06Q864.95,584.82,876.73,596.61Z" transform="translate(-768 -348)"/><path class="cls-15" d="M839.25,621c3.66,3.54,7.34,7.07,11,10.64.27.27.19.9.28,1.36v1.13l2.32,1.15L855,634.1V633c.17-.55.19-1.25.54-1.62,2.85-2.93,5.75-5.82,8.66-8.69.63-.62,1.36-1.13,2-1.69h2.62l6.37,6.37v1.51q-11,11-22,22a.54.54,0,0,1-.31.13c-.12,0-.25,0-.19,0l-22.49-22.49v-1.14l6.37-6.37Z" transform="translate(-768 -348)"/><path class="cls-16" d="M861.78,612.76c-.41.85-.55,1.83-1,2-3.38,1.49-4.74,5.24-7.84,7-2.46-.62-3.32-2.95-4.84-4.48s-3.72-2.18-4.29-4.71c.55-2.17,2.88-3,4.41-4.55s2.18-3.72,4.71-4.29c2.17.55,3,2.88,4.55,4.41S861.11,610.41,861.78,612.76Z" transform="translate(-768 -348)"/><path class="cls-16" d="M813.3,612.66l8.9-8.89c3,2.56,5.84,5.8,8.71,8.48l-9,9Z" transform="translate(-768 -348)"/><path class="cls-16" d="M874.83,612.66l8.88-8.88c3,2.54,5.82,5.78,8.69,8.46l-9,9Z" transform="translate(-768 -348)"/><path class="cls-17" d="M839.25,621h-2.62l-6.37,6.37v1.14L852.75,651c-.06,0,.07,0,.19,0a.54.54,0,0,0,.31-.13q11-11,22-22v-1.51L868.87,621h-2.62l.84-2.56c4.68,2,7,6.14,10.44,8.88a8.44,8.44,0,0,1-2.72,4.26Q864.33,642,853.87,652.5h-2.24c-7-7-14-13.93-20.91-20.94a45.15,45.15,0,0,1-3-3.82c3.4-3.15,6-6.92,10-9.08C838.82,619.18,839.43,619.85,839.25,621Z" transform="translate(-768 -348)"/><path class="cls-17" d="M855,633v1.1l-2.18,1.18-2.32-1.15V633Z" transform="translate(-768 -348)"/><path d="M1008.06,539.87V528.13H1032c.11,1.78,0,3.74,0,5.68s0,4,0,6.06Z" transform="translate(-768 -348)"/><path d="M1031.94,546v12h-23.89c-.12-1.91,0-3.87,0-5.81s0-4,0-6.19h23.94Z" transform="translate(-768 -348)"/><path d="M1008.06,576V564H1032c.12,1.91,0,3.87,0,5.81s0,4,0,6.19h-23.94Z" transform="translate(-768 -348)"/><path class="cls-18" d="M1093,680.29a38.63,38.63,0,0,1-14.33-2.59,37.87,37.87,0,0,1-13.55-8.94,32.22,32.22,0,0,1-6.74-9.59c-3.4-8-4-11.69-3.81-17.15a37.07,37.07,0,0,1,11.35-26,37.38,37.38,0,1,1,51.95,53.75A37.61,37.61,0,0,1,1093,680.29Zm17.39-62.91h-24L1065,644.09l.1,1.66c6.62,0,13,0,19.35,0a5.63,5.63,0,0,0,5.32-3,8.44,8.44,0,0,1,.77-1.17c2.82-3.34,5.8-6.54,8.4-10,1.25-1.67,2.82-3,4-4.7a60.9,60.9,0,0,1,6.66-8.1A8.41,8.41,0,0,0,1110.36,617.38Zm-36.87,50.74H1097l21.09-25.71v-2.66c-6.67,0-13.17,0-19.66,0a4.68,4.68,0,0,0-3.82,1.61c-2.31,2.88-4.38,5.95-6.67,8.84-3.3,4.16-6.71,8.22-10.05,12.34C1076.52,664.18,1075.22,665.9,1073.49,668.12Z" transform="translate(-768 -348)"/><path class="cls-19" d="M1110.36,617.38a8.41,8.41,0,0,1-.78,1.4,60.9,60.9,0,0,0-6.66,8.1c-1.18,1.67-2.75,3-4,4.7-2.6,3.5-5.58,6.7-8.4,10a8.44,8.44,0,0,0-.77,1.17,5.63,5.63,0,0,1-5.32,3c-6.37,0-12.73,0-19.35,0l-.1-1.66,21.36-26.71Z" transform="translate(-768 -348)"/><path class="cls-19" d="M1073.49,668.12c1.73-2.22,3-3.94,4.38-5.6,3.34-4.12,6.75-8.18,10.05-12.34,2.29-2.89,4.36-6,6.67-8.84a4.68,4.68,0,0,1,3.82-1.61c6.49,0,13,0,19.66,0v2.66L1097,668.12Z" transform="translate(-768 -348)"/></svg>