<svg id="Layer_1" data-name="Layer 1" xmlns="http://www.w3.org/2000/svg" viewBox="0 0 384 384"><defs><style>.cls-1{fill:#fefefe;}.cls-2{fill:#030202;}.cls-3{fill:#fdfdfd;}.cls-4{fill:#f4911a;}.cls-5{fill:#fd5c5c;}.cls-6{fill:#fa5d5d;}.cls-7{fill:#fe5c5c;}.cls-8{fill:#fcfcfc;}.cls-9{fill:#f3f3f3;}.cls-10{fill:#f8f3f3;}.cls-11{fill:#fcf7f7;}.cls-12{fill:#f7f7f7;}.cls-13{fill:#fbfbfb;}.cls-14{fill:#89510e;}.cls-15{fill:#da8f32;}.cls-16{fill:#fdf6ee;}.cls-17{fill:#f8a94a;}.cls-18{fill:#f68f12;}.cls-19{fill:#f68806;}.cls-20{fill:#f79927;}.cls-21{fill:#f79b2c;}.cls-22{fill:#fb5c5c;}.cls-23{fill:#d45757;}.cls-24{fill:#d35757;}.cls-25{fill:#f6931b;}</style></defs><title>BTC-STAKD</title><path class="cls-1" d="M1152,732H768V348h384ZM834,498.94c-6.72,1.83-13.22,3.18-19.41,5.41a174.58,174.58,0,0,0-18.38,8.25c-4.63,2.31-5.33,5.33-2.78,9.84,3.31,5.87,6.69,11.69,10.06,17.53s5.47,6.28,11.51,3.43,12.3-5.22,18.8-7.94v6.67a72.87,72.87,0,0,0-53.16,80.07c4.36,32.28,31.23,58.2,65.44,61.52A68.19,68.19,0,0,0,890,673c20.16-12.79,31-31.46,33.86-54.91H954v3.78c0,6.5-.06,13,0,19.5,0,3.92,2.14,6.47,5.76,6.51q18.18.2,36.37,0c3.63,0,5.76-2.56,5.84-6.43.08-4.75,0-9.51,0-14.26v-9h48c-6.55,14.17-7.19,21.58-5.26,32.36,3.54,19.76,15.31,33,34.5,38.33,18.81,5.28,35.64.28,48.61-14.39,13.2-14.94,15.74-32.32,8.39-50.89-1.69-4.29-3.17-8-2.39-13.08,1.44-9.35,1.46-18.92,2.06-28.4,1.36-21.58,2.75-43.15,4-64.74.3-5-2-7.29-7.08-7.49q-20.41-.79-40.84-1.59c-8-.32-15.9-.7-24-1.05V502.8q0-25.87,0-51.76c0-4.89-2.21-7-7.1-7.12-1.42,0-2.84,0-4.43,0,1-8.05,4.69-14.28,9.52-19.69l-8.23-8.43c-7.94,7.78-12.06,17.3-13.59,28.12h-2.93c-7.78,0-9.24,1.48-9.24,9.11v52.25H1012.7c-3.33-26.69-6.61-52.9-9.9-79.2.76-.14,1.24-.2,1.71-.31,10.22-2.24,16.47-10.32,15.39-19.84s-8.86-16-19.35-16q-79.87,0-159.75,0c-9.21,0-16.09,5.2-18.26,13.65-2.11,8.23,1.53,16,9.34,20.5a4.17,4.17,0,0,1,2,2.92C834,451,834,475,834,498.94Z" transform="translate(-768 -348)"/><path class="cls-2" d="M834,498.94c0-24,0-48-.09-72a4.17,4.17,0,0,0-2-2.92c-7.81-4.46-11.45-12.27-9.34-20.5,2.17-8.45,9.05-13.64,18.26-13.65q79.88,0,159.75,0c10.49,0,18.26,6.45,19.35,16s-5.17,17.6-15.39,19.84c-.47.11-1,.17-1.71.31,3.29,26.3,6.57,52.51,9.9,79.2H1032V453c0-7.63,1.46-9.07,9.24-9.11h2.93c1.53-10.82,5.65-20.34,13.59-28.12l8.23,8.43c-4.83,5.41-8.49,11.64-9.52,19.69,1.59,0,3,0,4.43,0,4.89.09,7.09,2.23,7.1,7.12q0,25.88,0,51.76v4.46c8.12.35,16.07.73,24,1.05q20.43.82,40.84,1.59c5.11.2,7.38,2.46,7.08,7.49-1.3,21.59-2.69,43.16-4,64.74-.6,9.48-.62,19-2.06,28.4-.78,5,.7,8.79,2.39,13.08,7.35,18.57,4.81,35.95-8.39,50.89-13,14.67-29.8,19.67-48.61,14.39-19.19-5.38-31-18.57-34.5-38.33-1.93-10.78-1.29-18.19,5.26-32.36h-48v9c0,4.75.06,9.51,0,14.26-.08,3.87-2.21,6.4-5.84,6.43q-18.18.2-36.37,0c-3.62,0-5.72-2.59-5.76-6.51-.08-6.5,0-13,0-19.5v-3.78H923.84C921,641.58,910.14,660.25,890,673a68.19,68.19,0,0,1-44,10.68c-34.21-3.32-61.08-29.24-65.44-61.52a72.87,72.87,0,0,1,53.16-80.07v-6.67c-6.5,2.72-12.77,5.09-18.8,7.94s-8.13,2.43-11.51-3.43-6.75-11.66-10.06-17.53c-2.55-4.51-1.85-7.53,2.78-9.84a174.58,174.58,0,0,1,18.38-8.25C820.73,502.12,827.23,500.77,834,498.94Zm44.31,58.93,0,0c-7-4.12-14.3-7-22.6-6.55l-10.45-.05c-2.36,0-4.85-.43-7,.18-8.75,2.45-17.1,6-24.33,11.57-2.54,2-4.49,4.68-6.71,7.05l-.83.81c-2.06,2.14-4.48,4-6.11,6.45C794.4,586,789.72,595.2,789.8,606a61.92,61.92,0,0,0,9.66,39.87c9.91,15.55,24.47,24.79,42.13,27.86,16.79,2.92,32.8-1.24,46.43-11.9,17.85-14,26.32-32.34,24.48-55.16-.56-3.39-.79-6.89-1.77-10.15-2-6.66-4.14-13.34-9.16-18.54a.48.48,0,0,0-.36-.56,21.6,21.6,0,0,0-2.24-3.72c-5.14-5.73-10.28-11.47-17.71-14.37l0,0ZM876,500.45c0-6.76,0-13,0-19.23,0-5.13,2.16-7.26,7.3-7.28q10.5,0,21,0c5.07,0,6.61,1.17,7.86,6.1,3.37,13.29,6.65,26.6,10.12,39.87a9.39,9.39,0,0,0,2.79,4.54,116.61,116.61,0,0,1,29.65,38.17,17.25,17.25,0,0,0,.94,1.62H978c0-10.9,0-21.13-.06-31.35a3.23,3.23,0,0,0-1.3-2.33c-6.12-3.76-12.31-7.41-18.67-11.2l-4.46,10.8-11.08-4.48,12-30,11,4.5c-1.05,2.78-2,5.21-3,7.84l15,9,1.18-.54q-5.94-45.18-11.87-90.29H870.07v73.1ZM1127,534a73.74,73.74,0,0,1,.61-8.93c.53-2.85-.22-3.7-3.12-3.8q-42.33-1.41-84.64-3.05c-8.49-.32-17-1-25.45-1.25-8-.22-16.12,0-24.19,0V564h2.86c6.9,0,8.88,2,8.89,8.92,0,5.63,0,11.26,0,16.88V606c16.93,0,33.45-.66,49.88.27,8.54.48,13.59-4.54,20.07-8-1.14-1.32-2.09-2.31-2.93-3.39-9.2-11.79-8.39-25.33-5.56-38.59,2.94-13.76,14.92-22.2,29.45-22.34C1104.14,533.86,1115.38,534,1127,534Zm-321.1-13.43c1.78,3.1,3.43,5.61,4.7,8.3,1.08,2.29,2.28,2.3,4.39,1.35,16.31-7.3,33.33-10,51-6.78,36.82,6.82,60.89,28.3,72.17,64,1.88,6,2.64,12.28,3.91,18.4h12.06c-3.57-35.88-19.86-63.83-50.88-81.94C871.88,505.47,839.28,505.44,805.92,520.52Zm115.25-118.6H840.56c-4.18,0-6.56,2.16-6.61,5.88s2.29,6.1,6.39,6.1q80.6,0,161.21,0a8,8,0,0,0,4.16-1.19c2.37-1.57,2.85-4.16,2-6.67-.94-2.9-3.18-4.13-6.36-4.12Q961.29,402,921.17,401.92Zm204,161.91h-33v-12h33.5c.2-2,.38-3.85.58-5.91-11.79,0-23.28,0-34.76,0A17.69,17.69,0,0,0,1074,563.6c0,4.13,0,8.25,0,12.38a17.77,17.77,0,0,0,17.58,18c10.45.27,20.09,3.1,28.62,9.33.65.47,1.39.8,2.37,1.36.35-5.8.68-11.17,1-16.88h-31.36v-12h32.1C1124.61,571.84,1124.87,568.13,1125.16,563.83Zm9.46,79.17a42.63,42.63,0,1,0-43,42.37A42.86,42.86,0,0,0,1134.62,643ZM978.69,426c3.51,26.27,7,52.25,10.48,78.41h11.47q-4.93-39.35-9.82-78.41Zm-121,72V426.15H846.11V498Zm72,107.85c-4.46-49.46-49.42-76-83.5-71.25v5.5c19.81-1.07,37.32,4.33,52.3,17s23.19,29.29,25.29,48.71Zm126-99.26V456.21h-11.55v50.37Zm-147.91,5.61c-2.24-9-4.39-17.58-6.5-26H888v17.27Zm82,112.06H966.25v11.46h23.58Zm0-48.07H966.19v11.58h23.69Zm-23.7,23.89v11.7h23.59v-11.7Z" transform="translate(-768 -348)"/><path class="cls-3" d="M876,500.45l-5.89-1.16v-73.1H966.8q5.93,45.09,11.87,90.29l-1.18.54-15-9c1-2.63,1.9-5.06,3-7.84l-11-4.5-12,30,11.08,4.48,4.46-10.8c6.36,3.79,12.55,7.44,18.67,11.2a3.23,3.23,0,0,1,1.3,2.33c.09,10.22.06,20.45.06,31.35H955.62a17.25,17.25,0,0,1-.94-1.62A116.61,116.61,0,0,0,925,524.45a9.39,9.39,0,0,1-2.79-4.54c-3.47-13.27-6.75-26.58-10.12-39.87-1.25-4.93-2.79-6.09-7.86-6.1q-10.5,0-21,0c-5.14,0-7.27,2.15-7.3,7.28C875.93,487.45,876,493.69,876,500.45Z" transform="translate(-768 -348)"/><path class="cls-4" d="M806.33,570.91l.83-.81A10.38,10.38,0,0,0,809,569,61.82,61.82,0,0,1,839.64,553a56.72,56.72,0,0,0,5.61-1.74l10.45.05c.38.43.7,1.12,1.15,1.24,4.3,1.08,8.64,2,12.94,3.08,2.85.69,5.67,1.48,8.51,2.23l0,0,3,1.53,0,0a12.08,12.08,0,0,0,1.58,2.23c5.18,4.56,10.4,9.07,15.62,13.58.9.78,1.83,1.52,2.75,2.28a.48.48,0,0,1,.36.56,7.43,7.43,0,0,0,.54,2.11,65.25,65.25,0,0,1,8.57,23.67c.17,1,1.2,1.94,1.82,2.91,1.84,22.82-6.63,41.2-24.48,55.16-13.63,10.66-29.64,14.82-46.43,11.9-17.66-3.07-32.22-12.31-42.13-27.86A61.92,61.92,0,0,1,789.8,606a8.58,8.58,0,0,0,1.32-2.37c1.55-8.4,4.17-16.4,8.86-23.61C802,577,804.21,574,806.33,570.91Zm32.12,77.85,1.46-.8,3,1.52c4.62,3.76,7.93,2.92,9.46-2.39a20,20,0,0,0,1-3.21c.25-2.14,1.09-2.39,3.24-2.09,12.29,1.75,19.22-2.6,22-13.48,1.24-4.84-1.19-10.4-5.1-11.64l.08-.2-.09.2,1.72-3.89.8-.78c3.07-1.79,5.39-7.08,4.15-10.6-.67-1.9-2.29-3.46-3.49-5.17-.75-.74-1.5-1.48-2.26-2.21l-7.63-4.4c.69-2.61,1.57-5.19,2-7.85.2-1.25-.19-3.66-.77-3.81a62,62,0,0,0-8.45-1.15l-2.34-.83L852,574.43l-1.53-.07c-.6.08-1.68,0-1.73.24-.6,2.59-1.06,5.21-1.55,7.83l-.25,1.15c-2.89-.59-5.76-1.36-8.68-1.7a43.48,43.48,0,0,0-6.45.11c-2.57.81-3.44,4.69-1.51,6.75l1.44,1.47c.34.72.54,1.93,1,2.07,3,.82,3,2.93,2.41,5.26-2,8-4,16-5.7,23l-5.23,2.74-1.5,1.45c-2.21.27-5.24,5-4.22,6.8.26.45,1.27.48,1.93.7l1.54,1.45c-.24,2.93,1.65,3.23,3.83,3,2.71-.24,4,.9,3.66,3.64a15.18,15.18,0,0,0-.34,4c.12.79,1.18,1.43,1.81,2.13l.8,1.45c.36,4,4.45,1.68,6.26,4.65Z" transform="translate(-768 -348)"/><path class="cls-5" d="M1127,534c-11.64,0-22.88-.09-34.13,0-14.53.14-26.51,8.58-29.45,22.34-2.83,13.26-3.64,26.8,5.56,38.59.84,1.08,1.79,2.07,2.93,3.39-6.48,3.41-11.53,8.43-20.07,8-16.43-.93-32.95-.27-49.88-.27V589.76c0-5.62,0-11.25,0-16.88,0-6.89-2-8.87-8.89-8.92h-2.86V516.87c8.07,0,16.14-.17,24.19,0,8.49.23,17,.93,25.45,1.25q42.32,1.62,84.64,3.05c2.9.1,3.65.95,3.12,3.8A73.74,73.74,0,0,0,1127,534Zm-95.24,5.84V528.18h-23.54v11.61Zm-23.59,6.34v11.59h23.51V546.13Zm0,17.89v11.69h23.49V564Z" transform="translate(-768 -348)"/><path class="cls-6" d="M805.92,520.52c33.36-15.08,66-15,97.35,3.28,31,18.11,47.31,46.06,50.88,81.94H942.09c-1.27-6.12-2-12.44-3.91-18.4-11.28-35.65-35.35-57.13-72.17-64-17.67-3.27-34.69-.52-51,6.78-2.11,1-3.31.94-4.39-1.35C809.35,526.13,807.7,523.62,805.92,520.52Z" transform="translate(-768 -348)"/><path class="cls-7" d="M921.17,401.92q40.11,0,80.23,0c3.18,0,5.42,1.22,6.36,4.12.8,2.51.32,5.1-2,6.67a8,8,0,0,1-4.16,1.19q-80.61.09-161.21,0c-4.1,0-6.44-2.32-6.39-6.1s2.43-5.88,6.61-5.88Z" transform="translate(-768 -348)"/><path class="cls-8" d="M1125.16,563.83c-.29,4.3-.55,8-.83,12h-32.1v12h31.36c-.35,5.71-.68,11.08-1,16.88-1-.56-1.72-.89-2.37-1.36-8.53-6.23-18.17-9.06-28.62-9.33A17.77,17.77,0,0,1,1074,576c0-4.13,0-8.25,0-12.38A17.69,17.69,0,0,1,1091.53,546c11.48,0,23,0,34.76,0-.2,2.06-.38,3.86-.58,5.91h-33.5v12Z" transform="translate(-768 -348)"/><path class="cls-9" d="M1134.62,643a42.63,42.63,0,1,1-42.45-42.9A42.86,42.86,0,0,1,1134.62,643Zm-5.14-.21a37.49,37.49,0,1,0-37.73,37.44A37.52,37.52,0,0,0,1129.48,642.79Z" transform="translate(-768 -348)"/><path class="cls-10" d="M978.69,426h12.13q4.89,39.14,9.82,78.41H989.17C985.67,478.26,982.2,452.28,978.69,426Z" transform="translate(-768 -348)"/><path class="cls-11" d="M857.73,498H846.11V426.15h11.62Z" transform="translate(-768 -348)"/><path class="cls-12" d="M929.7,605.84h-5.91c-2.1-19.42-10.26-36-25.29-48.71S866,539,846.2,540.09v-5.5C880.28,529.88,925.24,556.38,929.7,605.84Z" transform="translate(-768 -348)"/><path class="cls-5" d="M1055.73,506.58h-11.55V456.21h11.55Z" transform="translate(-768 -348)"/><path class="cls-13" d="M907.82,512.19,888,503.45V486.18h13.28C903.43,494.61,905.58,503.21,907.82,512.19Z" transform="translate(-768 -348)"/><path class="cls-1" d="M989.83,624.25v11.46H966.25V624.25Z" transform="translate(-768 -348)"/><path class="cls-1" d="M989.88,576.18v11.58H966.19V576.18Z" transform="translate(-768 -348)"/><path class="cls-1" d="M966.18,600.07h23.59v11.7H966.18Z" transform="translate(-768 -348)"/><path class="cls-14" d="M845.25,551.3a56.72,56.72,0,0,1-5.61,1.74A61.82,61.82,0,0,0,809,569a10.38,10.38,0,0,1-1.84,1.15c2.22-2.37,4.17-5.08,6.71-7.05,7.23-5.6,15.58-9.12,24.33-11.57C840.4,550.87,842.89,551.33,845.25,551.3Z" transform="translate(-768 -348)"/><path class="cls-14" d="M806.33,570.91c-2.12,3.05-4.33,6-6.35,9.15-4.69,7.21-7.31,15.21-8.86,23.61A8.58,8.58,0,0,1,789.8,606c-.08-10.84,4.6-20,10.42-28.68C801.85,574.94,804.27,573.05,806.33,570.91Z" transform="translate(-768 -348)"/><path class="cls-15" d="M912.5,606.71c-.62-1-1.65-1.87-1.82-2.91a65.25,65.25,0,0,0-8.57-23.67,7.43,7.43,0,0,1-.54-2.11c5,5.2,7.15,11.88,9.16,18.54C911.71,599.82,911.94,603.32,912.5,606.71Z" transform="translate(-768 -348)"/><path class="cls-15" d="M901.21,577.46c-.92-.76-1.85-1.5-2.75-2.28-5.22-4.51-10.44-9-15.62-13.58a12.08,12.08,0,0,1-1.58-2.23c7.43,2.9,12.57,8.64,17.71,14.37A21.6,21.6,0,0,1,901.21,577.46Z" transform="translate(-768 -348)"/><path class="cls-15" d="M878.3,557.9c-2.84-.75-5.66-1.54-8.51-2.23-4.3-1-8.64-2-12.94-3.08-.45-.12-.77-.81-1.15-1.24C864,550.88,871.33,553.78,878.3,557.9Z" transform="translate(-768 -348)"/><path class="cls-15" d="M881.29,559.4l-3-1.53Z" transform="translate(-768 -348)"/><path class="cls-16" d="M846.9,583.58c.09-.38.17-.77.25-1.16q1.64-4,3.28-8.06l1.53.07c4,1.5,3.9,4.39,2.62,7.69-.22.58-.36,1.19-.6,1.77-.84,2,.09,3,2,3.58s3.15.27,3.67-1.8c.42-1.69,1-3.34,1.29-5,.31-2.1,1.44-2.71,3.37-2.47,2.79.33,3.83,1.36,3,4.49-.6,2.15-3,4.53-.43,7l7.63,4.4c.76.73,1.51,1.47,2.26,2.21,3.19,5.4,2.32,10.63-.66,15.77l-.8.78-3.47,2.09,1.75,1.8.09-.2-.07.2c5.21,7.69,4.49,15.81-2,21.11-4.25,3.47-9.45,3.4-14.3,2.49-3.89-.74-4.92.9-5.57,3.9-.22,1-.39,2-.57,2.94-.42,2.21-1.18,3.77-4,2.93-2.36-.7-3.4-1.73-2.38-4.3a12.58,12.58,0,0,0,1.07-5.07c-.06-1-1.42-1.89-2.19-2.83l-1.34-.05c-.76.76-1.81,1.39-2.2,2.3a23,23,0,0,0-1,4.34c-.52,2.45-1.92,3.21-4.37,2.55s-2.75-2-2.07-4.18a38.15,38.15,0,0,0,.91-4.67l.18-1.34c-.94-.89-1.74-2.14-2.86-2.59a46.58,46.58,0,0,0-6.46-1.75c-1.81-.44-3.23-1.21-2-3.31,1.06-1.85,1.22-5.34,4.66-3.92,3.69,1.53,5.09-.15,5.87-3.28q3.22-12.84,6.38-25.68c1-4,0-5.87-4.13-6.66-2.45-.47-3.23-1.55-2.63-3.83s1.75-3.8,4.54-2.88a42,42,0,0,0,6.86,1.73C844.89,584.76,845.93,584,846.9,583.58Zm11,26q6.45.2,7.83-4.92c.75-2.79-1.15-5.78-4.82-7.5a31.59,31.59,0,0,0-3.13-1.28c-5.58-1.89-5.84-1.75-7.31,4C848.28,608.48,848.9,609.3,857.94,609.58Zm-4.33,21.82c6.08.07,9.35-1.88,10.18-5.28.78-3.17-1.09-6.2-5.56-8.24a36.65,36.65,0,0,0-8.49-2.76,4.24,4.24,0,0,0-3.56,2,37,37,0,0,0-2.29,9c-.14,1.15.91,3.26,1.88,3.59A54.14,54.14,0,0,0,853.61,631.4Z" transform="translate(-768 -348)"/><path class="cls-17" d="M846.9,583.58c-1,.38-2,1.18-2.91,1a42,42,0,0,1-6.86-1.73c-2.79-.92-3.92.54-4.54,2.88s.18,3.36,2.63,3.83c4.11.79,5.12,2.64,4.13,6.66q-3.17,12.84-6.38,25.68c-.78,3.13-2.18,4.81-5.87,3.28-3.44-1.42-3.6,2.07-4.66,3.92-1.21,2.1.21,2.87,2,3.31a46.58,46.58,0,0,1,6.46,1.75c1.12.45,1.92,1.7,2.86,2.59L822,633.68l-1.54-1.45c.76-2.5,1.53-5,2.29-7.5l1.5-1.45c1.47.23,3,.84,4.37.58,1.13-.21,2.72-1.27,3-2.25,2.25-8.51,4.11-17.12,6.41-25.62.73-2.67.19-4.09-2.29-4.86-1.29-.41-2.65-.62-4-.92l-1.44-1.47c.5-2.25,1-4.5,1.51-6.75a43.48,43.48,0,0,1,6.45-.11C841.14,582.22,844,583,846.9,583.58Z" transform="translate(-768 -348)"/><path class="cls-17" d="M843.62,637.84c.77.94,2.13,1.85,2.19,2.83a12.58,12.58,0,0,1-1.07,5.07c-1,2.57,0,3.6,2.38,4.3,2.8.84,3.56-.72,4-2.93.18-1,.35-2,.57-2.94.65-3,1.68-4.64,5.57-3.9,4.85.91,10,1,14.3-2.49,6.48-5.3,7.2-13.42,2-21.11,3.9,1.24,6.33,6.8,5.09,11.64-2.81,10.88-9.74,15.23-22,13.48-2.15-.3-3,0-3.24,2.09a20,20,0,0,1-1,3.21c-1.53,5.31-4.84,6.15-9.46,2.39.31-2,.74-4,.87-6.08A54.52,54.52,0,0,0,843.62,637.84Z" transform="translate(-768 -348)"/><path class="cls-18" d="M831.7,590.21c1.33.3,2.69.51,4,.92,2.48.77,3,2.19,2.29,4.86-2.3,8.5-4.16,17.11-6.41,25.62-.26,1-1.85,2-3,2.25-1.37.26-2.9-.35-4.37-.58l5.23-2.74c1.74-7,3.74-15,5.7-23,.57-2.33.62-4.44-2.41-5.26C832.24,592.14,832,590.93,831.7,590.21Z" transform="translate(-768 -348)"/><path class="cls-17" d="M866.8,589.62c-2.59-2.45-.17-4.83.43-7,.87-3.13-.17-4.16-3-4.49-1.93-.24-3.06.37-3.37,2.47-.26,1.71-.87,3.36-1.29,5-.52,2.07-1.75,2.44-3.67,1.8s-2.8-1.56-2-3.58c.24-.58.38-1.19.6-1.77,1.28-3.3,1.36-6.19-2.62-7.69l5.28,1.55c-.49,3.16-1,6.32-1.48,9.48l1.31.3a13.35,13.35,0,0,0,2.51-9A62,62,0,0,1,868,578c.58.15,1,2.56.77,3.81C868.37,584.43,867.49,587,866.8,589.62Z" transform="translate(-768 -348)"/><path class="cls-18" d="M822,633.68l11.82,3.11-.18,1.35c-3.18,2-2.09,5.46-2.68,8.34-.63-.7-1.69-1.34-1.81-2.13a15.18,15.18,0,0,1,.34-4c.3-2.74-1-3.88-3.66-3.64C823.61,636.91,821.72,636.61,822,633.68Z" transform="translate(-768 -348)"/><path class="cls-17" d="M830.92,646.48c.59-2.88-.5-6.3,2.68-8.34a38.36,38.36,0,0,1-.91,4.66c-.68,2.16-.37,3.53,2.07,4.18s3.85-.1,4.37-2.55a23,23,0,0,1,1-4.34c.39-.91,1.44-1.54,2.2-2.3L839.91,648l-1.46.8-6.73-.83Z" transform="translate(-768 -348)"/><path class="cls-18" d="M839.91,648l2.37-10.17,1.34.05a54.52,54.52,0,0,1,.17,5.56c-.13,2-.56,4.06-.87,6.08Z" transform="translate(-768 -348)"/><path class="cls-17" d="M876,612c3-5.14,3.85-10.37.66-15.77,1.2,1.71,2.82,3.27,3.49,5.17C881.42,604.92,879.1,610.21,876,612Z" transform="translate(-768 -348)"/><path class="cls-19" d="M859.58,576.81a13.35,13.35,0,0,1-2.51,9l-1.31-.3c.49-3.16,1-6.32,1.48-9.48Z" transform="translate(-768 -348)"/><path class="cls-18" d="M822.71,624.73c-.76,2.5-1.53,5-2.29,7.5-.66-.22-1.67-.25-1.93-.7C817.47,629.75,820.5,625,822.71,624.73Z" transform="translate(-768 -348)"/><path class="cls-18" d="M831.72,647.93l6.73.83c-.12.92-.23,1.84-.47,3.82C836.17,649.61,832.08,652,831.72,647.93Z" transform="translate(-768 -348)"/><path class="cls-17" d="M850.43,574.36q-1.65,4-3.28,8.06c.49-2.61,1-5.23,1.55-7.82C848.75,574.4,849.83,574.44,850.43,574.36Z" transform="translate(-768 -348)"/><path class="cls-18" d="M831.77,582c-.5,2.25-1,4.5-1.51,6.75C828.33,586.68,829.2,582.8,831.77,582Z" transform="translate(-768 -348)"/><path class="cls-17" d="M874.43,594l-7.63-4.4Z" transform="translate(-768 -348)"/><path class="cls-17" d="M873.51,616.67l-1.75-1.8,3.47-2.09C874.65,614.08,874.08,615.37,873.51,616.67Z" transform="translate(-768 -348)"/><path d="M1031.78,539.79h-23.54V528.18h23.54Z" transform="translate(-768 -348)"/><path d="M1008.19,546.13h23.51v11.59h-23.51Z" transform="translate(-768 -348)"/><path d="M1008.2,564h23.49v11.69H1008.2Z" transform="translate(-768 -348)"/><path class="cls-2" d="M1129.48,642.79a37.49,37.49,0,1,1-37.25-37.55A37.51,37.51,0,0,1,1129.48,642.79Zm-46.77,13.94-.74.89-8.67,10.62c7.88,0,14.73.06,21.58-.06a4.65,4.65,0,0,0,3.13-1.39c5.34-6.39,10.54-12.91,15.79-19.38l1.06-1.21.15-.2.52-.7,0,0,.76-.88.54-.7c.34-.38.68-.76,1-1.13a.42.42,0,0,0,.22-.34.72.72,0,0,0,.45-.55l.19-.2,2.08-2.37c-7,0-13.3-.05-19.61,0a40.64,40.64,0,0,0-5,.65l-.46.58-.23.27a.4.4,0,0,0-.36.38l-.46.61,0,.09-.73.89-.52.7-1,1.18-.19.27-.47.65,0,.07-.73.88-.53.71-1,1.19-.17.24-.49.68,0,.05-.73.89-.54.71-1,1.21-.14.21-.51.71.2.1-.21-.07c-.25.3-.5.59-.74.89l-.55.72-1,1.21-.13.18-.52.74.25.09ZM1096,634.81l0-.06.64-.81-.2-.22.19.23.69-.85v0l1-1.06a.4.4,0,0,0,.24-.36.69.69,0,0,0,.43-.53l.15-.16.57-.76-.27-.1.27.08.75-.88,10.18-12.12h-12.88c-12.28,0-12.28,0-19.43,10.28l-1,1.16a.39.39,0,0,0-.22.34l-.44.57-.11.13-.58.8-.68.85,0,0-1,1.1a.41.41,0,0,0-.21.31l-.46.61-.06.09-.72.88-.52.71-1,1.17-.19.28-.47.65,0,.07-.72.88-.54.71-1,1.19-.17.24-.49.68,0,.05-.73.89-.54.71-1,1.21-.18.24-2,2.37c6,0,11.27.07,16.58,0,2.42,0,4.84-.4,7.26-.62l.51-.69.1-.1.51-.51a.62.62,0,0,0,.38-.44l.21-.24.53-.71,0,0,.75-.88.55-.7,1-1.14a.4.4,0,0,0,.22-.32l.45-.56.12-.14.59-.77-.25-.09.25.08.75-.88.57-.71,1-1.18.16-.22Z" transform="translate(-768 -348)"/><path class="cls-20" d="M857.94,609.58c-9-.28-9.66-1.1-7.43-9.75,1.47-5.7,1.73-5.84,7.31-4a31.59,31.59,0,0,1,3.13,1.28c3.67,1.72,5.57,4.71,4.82,7.5Q864.39,609.78,857.94,609.58Z" transform="translate(-768 -348)"/><path class="cls-21" d="M853.61,631.4a54.14,54.14,0,0,1-7.84-1.68c-1-.33-2-2.44-1.88-3.59a37,37,0,0,1,2.29-9,4.24,4.24,0,0,1,3.56-2,36.65,36.65,0,0,1,8.49,2.76c4.47,2,6.34,5.07,5.56,8.24C863,629.52,859.69,631.47,853.61,631.4Zm.32-3.66a12.32,12.32,0,0,0,3,0c1.1-.27,2.9-.81,3-1.42a6.87,6.87,0,0,0-.89-4.42,5.38,5.38,0,0,0-3.7-2.17c-2.27,0-5-2.4-6.84.56-2.42,4-.26,7.5,4.35,7.5Z" transform="translate(-768 -348)"/><path class="cls-22" d="M1084.41,654.58l.55-.72c.24-.3.49-.59.74-.89l.21.07-.2-.1.51-.71.14-.21c.35-.4.7-.8,1-1.21l.54-.71c.25-.29.49-.59.73-.89l0-.05c.17-.22.33-.45.49-.68l.17-.24c.35-.39.69-.79,1-1.19l.53-.71c.24-.29.48-.59.73-.88l0-.07.47-.65.19-.27,1-1.18.52-.7.73-.89,0-.09c.16-.2.31-.41.46-.61a.4.4,0,0,1,.36-.38l.49,0-.26-.22.46-.58c6,.23,12,.4,18,.71a29.1,29.1,0,0,1,4.53,1l-.19.2-.45.55a.39.39,0,0,1-.22.33l-1,1.14-.54.7c-.25.29-.51.58-.76.88l0,0c-.18.23-.35.47-.52.7l-.15.2c-.35.4-.71.8-1.06,1.21-5.25,6.47-10.45,13-15.79,19.38a4.65,4.65,0,0,1-3.13,1.39c-6.85.12-13.7.06-21.58.06l8.67-10.62.74-.89.26.07-.25-.09.52-.74.13-.18Z" transform="translate(-768 -348)"/><path class="cls-22" d="M1072.39,635l.52-.71.72-.88.06-.09.46-.61a.41.41,0,0,1,.21-.31c.33-.37.65-.74,1-1.1l0,0,.68-.85.58-.8.11-.13.44-.57a.39.39,0,0,1,.22-.34l1-1.16c7.15-10.28,7.15-10.28,19.43-10.28h12.88l-10.18,12.12-.75.88-.27-.08.26.1-.56.76-.15.16-.43.53a.4.4,0,0,1-.24.36l-1,1.06v0l-.69.85-.19-.23.2.22-.64.81,0,.06-.51.68-.16.22-1,1.18-.57.71-.75.88-.25-.08.25.09-.59.77-.12.14-.45.56a.4.4,0,0,1-.22.32l-1,1.14c-.18.24-.37.47-.55.7l-.75.88,0,0c-.18.24-.35.48-.53.71l-.22.23-.58.15.21.3-.51.51-.38,0,.28.12-.51.69c-5.64-.23-11.29-.41-16.93-.74a35.39,35.39,0,0,1-4.92-1l.18-.24,1-1.21.54-.71.73-.89,0-.05c.17-.22.33-.45.49-.68l.17-.24,1-1.19.54-.71.72-.88,0-.07c.15-.22.31-.43.47-.65l.19-.28Z" transform="translate(-768 -348)"/><path class="cls-23" d="M1118.74,641.46a29.1,29.1,0,0,0-4.53-1c-6-.31-12-.48-18-.71a40.64,40.64,0,0,1,5-.65c6.31-.08,12.63,0,19.61,0Z" transform="translate(-768 -348)"/><path class="cls-24" d="M1065.18,644a35.39,35.39,0,0,0,4.92,1c5.64.33,11.29.51,16.93.74-2.42.22-4.84.58-7.26.62-5.31.1-10.63,0-16.58,0Z" transform="translate(-768 -348)"/><path class="cls-24" d="M1078.38,627.51l-1,1.16Z" transform="translate(-768 -348)"/><path class="cls-24" d="M1097.39,633.12l1-1.06Z" transform="translate(-768 -348)"/><path class="cls-24" d="M1072.39,635l-1,1.17Z" transform="translate(-768 -348)"/><path class="cls-24" d="M1094.32,636.89l1-1.18Z" transform="translate(-768 -348)"/><path class="cls-23" d="M1116.85,643.68l1-1.14Z" transform="translate(-768 -348)"/><path class="cls-24" d="M1090.59,641.42l1-1.14Z" transform="translate(-768 -348)"/><path class="cls-24" d="M1075.34,631.34c-.33.36-.65.73-1,1.1C1074.69,632.07,1075,631.7,1075.34,631.34Z" transform="translate(-768 -348)"/><path class="cls-24" d="M1069.39,638.8l-1,1.19Z" transform="translate(-768 -348)"/><path class="cls-24" d="M1066.4,642.56l-1,1.21Z" transform="translate(-768 -348)"/><path class="cls-23" d="M1093.39,643.29l-1,1.18C1092.7,644.07,1093.05,643.68,1093.39,643.29Z" transform="translate(-768 -348)"/><path class="cls-23" d="M1113.8,647.41c.35-.41.71-.81,1.06-1.21C1114.51,646.6,1114.15,647,1113.8,647.41Z" transform="translate(-768 -348)"/><path class="cls-23" d="M1090.4,647.05c-.35.4-.69.8-1,1.19Z" transform="translate(-768 -348)"/><path class="cls-23" d="M1087.4,650.81c-.34.41-.69.81-1,1.21Z" transform="translate(-768 -348)"/><path class="cls-23" d="M1084.41,654.58l-1,1.21Z" transform="translate(-768 -348)"/><path class="cls-24" d="M1076,630.51l-.68.85Z" transform="translate(-768 -348)"/><path class="cls-24" d="M1070.65,637.21l-.72.88Z" transform="translate(-768 -348)"/><path class="cls-24" d="M1092.41,639.26l.59-.77Z" transform="translate(-768 -348)"/><path class="cls-24" d="M1091.84,640l.45-.56Z" transform="translate(-768 -348)"/><path class="cls-24" d="M1099.19,631l.56-.76Z" transform="translate(-768 -348)"/><path class="cls-24" d="M1068.19,640.23c-.16.23-.32.46-.49.68Z" transform="translate(-768 -348)"/><path class="cls-24" d="M1093,638.48l.75-.88Z" transform="translate(-768 -348)"/><path class="cls-24" d="M1076.58,629.71l-.58.8Z" transform="translate(-768 -348)"/><path class="cls-24" d="M1067.67,641l-.73.89Z" transform="translate(-768 -348)"/><path class="cls-23" d="M1095.15,641c-.15.2-.3.41-.46.61Z" transform="translate(-768 -348)"/><path class="cls-23" d="M1118.1,642.21l.45-.55A.72.72,0,0,1,1118.1,642.21Z" transform="translate(-768 -348)"/><path class="cls-24" d="M1089.29,643l.75-.88Z" transform="translate(-768 -348)"/><path class="cls-23" d="M1094.64,641.7l-.73.89Z" transform="translate(-768 -348)"/><path class="cls-23" d="M1095.74,640.35l.26.22-.49,0Z" transform="translate(-768 -348)"/><path class="cls-24" d="M1074.15,632.75l-.46.61Z" transform="translate(-768 -348)"/><path class="cls-24" d="M1088.74,643.75c.18-.23.35-.47.53-.71C1089.09,643.28,1088.92,643.52,1088.74,643.75Z" transform="translate(-768 -348)"/><path class="cls-24" d="M1088.15,644.43l-.21-.3.58-.15A.59.59,0,0,1,1088.15,644.43Z" transform="translate(-768 -348)"/><path class="cls-24" d="M1096.71,634l.69-.85Z" transform="translate(-768 -348)"/><path class="cls-24" d="M1099.76,630.23l.75-.88Z" transform="translate(-768 -348)"/><path class="cls-24" d="M1087.54,645l-.28-.12.38,0Z" transform="translate(-768 -348)"/><path class="cls-23" d="M1115.55,645.26c.25-.3.51-.59.76-.88C1116.06,644.67,1115.8,645,1115.55,645.26Z" transform="translate(-768 -348)"/><path class="cls-23" d="M1092.17,644.74l-.47.65C1091.85,645.17,1092,645,1092.17,644.74Z" transform="translate(-768 -348)"/><path class="cls-23" d="M1115,646c.17-.23.34-.47.52-.7C1115.36,645.54,1115.18,645.77,1115,646Z" transform="translate(-768 -348)"/><path class="cls-23" d="M1091.66,645.46c-.25.29-.49.59-.73.88C1091.17,646.05,1091.41,645.75,1091.66,645.46Z" transform="translate(-768 -348)"/><path class="cls-24" d="M1098.61,631.7l.43-.53A.69.69,0,0,1,1098.61,631.7Z" transform="translate(-768 -348)"/><path class="cls-24" d="M1073.63,633.45l-.72.88Z" transform="translate(-768 -348)"/><path class="cls-24" d="M1096.08,634.75l.64-.81Z" transform="translate(-768 -348)"/><path class="cls-24" d="M1077.13,629l-.44.57Z" transform="translate(-768 -348)"/><path class="cls-23" d="M1089.19,648.48c-.16.23-.32.46-.49.68Z" transform="translate(-768 -348)"/><path class="cls-23" d="M1088.67,649.21c-.24.3-.48.6-.73.89C1088.19,649.81,1088.43,649.51,1088.67,649.21Z" transform="translate(-768 -348)"/><path class="cls-24" d="M1095.52,635.49l.51-.68Z" transform="translate(-768 -348)"/><path class="cls-23" d="M1086.22,652.23l-.51.71Z" transform="translate(-768 -348)"/><path class="cls-23" d="M1085.7,653c-.25.3-.5.59-.74.89C1085.2,653.56,1085.45,653.27,1085.7,653Z" transform="translate(-768 -348)"/><path class="cls-24" d="M1071.17,636.49c-.16.22-.32.43-.47.65C1070.85,636.92,1071,636.7,1071.17,636.49Z" transform="translate(-768 -348)"/><path class="cls-23" d="M1083.24,656l-.52.74Z" transform="translate(-768 -348)"/><path class="cls-23" d="M1082.71,656.73l-.74.89Z" transform="translate(-768 -348)"/><path class="cls-25" d="M853.93,627.74h-1.12c-4.61,0-6.77-3.53-4.35-7.5,1.79-3,4.57-.57,6.84-.56a5.38,5.38,0,0,1,3.7,2.17,6.87,6.87,0,0,1,.89,4.42c-.08.61-1.88,1.15-3,1.42A12.32,12.32,0,0,1,853.93,627.74Z" transform="translate(-768 -348)"/></svg>