<svg id="Layer_1" data-name="Layer 1" xmlns="http://www.w3.org/2000/svg" viewBox="0 0 384 384"><defs><style>.cls-1{fill:#fefefe;}.cls-2{fill:#020202;}.cls-3{fill:#fdfdfd;}.cls-4{fill:#fcfbf7;}.cls-5{fill:#fd5c5c;}.cls-6{fill:#fa5d5d;}.cls-7{fill:#fe5c5c;}.cls-8{fill:#fcfcfc;}.cls-9{fill:#f3f3f3;}.cls-10{fill:#f8f3f3;}.cls-11{fill:#fcf7f7;}.cls-12{fill:#f7f7f7;}.cls-13{fill:#fbfbfb;}.cls-14{fill:#f0bc17;}.cls-15{fill:#f0bb16;}.cls-16{fill:#f0bd1b;}.cls-17{fill:#030202;}.cls-18{fill:#fb5c5c;}</style></defs><title>bUSD-STAKD</title><path class="cls-1" d="M768,348h384V732H768Zm234,270.14h48.22c-3.72,7.34-6.15,14.77-6.28,22.9A48.88,48.88,0,0,0,1049,664.1a48,48,0,0,0,74.11,15.22,46.88,46.88,0,0,0,15.89-26.4,47.77,47.77,0,0,0-6.26-36.31,30.32,30.32,0,0,0,1.23-4.8q1.13-15.67,2.09-31.36c.63-10.34,1.19-20.69,1.79-31,.26-4.48.55-9,.84-13.45.42-6.34.76-12.7,1.31-19a6.49,6.49,0,0,0-6.51-7c-9.86-.28-19.7-.86-29.55-1.24-10.23-.4-20.47-.69-30.7-1.06-1.7-.06-3.39-.3-5.25-.47V452.91c0-1,0-2,0-3a5.91,5.91,0,0,0-6-5.89c-1.72-.09-3.45,0-5.45,0,.86-7.94,4.57-14.11,9.57-19.77l-8.42-8.32c-7.87,7.77-12,17.29-13.54,28.09-2.33,0-4.32-.1-6.31,0a5.87,5.87,0,0,0-5.79,5.7c-.09,1,0,2,0,3v53.13c-6.63-.46-13-.18-19.3-.76-3.31-26.53-6.59-52.69-9.86-78.85l3.87-.93c8.9-2.1,17.14-13,11.55-25-3.16-6.74-8.86-10.33-16.46-10.35-14,0-28,0-42,0q-59.79,0-119.6,0a18.46,18.46,0,0,0-17.72,13.87A18.23,18.23,0,0,0,831.79,424c.75.39,1.46.84,2.09,1.2v74.15c-2.73.58-5.39,1.08-8,1.7A118.58,118.58,0,0,0,796,512.62c-3.56,2-5.42,5.57-2.76,9.68,1.35,2.09,2.5,4.31,3.75,6.47,2.49,4.31,4.94,8.66,7.5,12.93,2.2,3.67,5,4.43,8.87,2.54,1.12-.54,2.18-1.2,3.29-1.76a73.78,73.78,0,0,1,17.19-6.25v6a73,73,0,0,0-30.71,16.87,71.49,71.49,0,0,0-19.35,29.79A70,70,0,0,0,781,624a71.93,71.93,0,0,0,65.24,59.82,68.86,68.86,0,0,0,44.2-10.95c19.9-12.81,30.72-31.36,33.47-54.69H954v3q0,9.55,0,19.12c0,5.69,2,7.71,7.58,7.73,6.88,0,13.75,0,20.62,0,4.38,0,8.75,0,13.13,0s6.56-2.32,6.67-6.76c0-1,0-2,0-3Z" transform="translate(-768 -348)"/><path class="cls-2" d="M1002,618.14v20.09c0,1,0,2,0,3-.11,4.44-2.28,6.69-6.67,6.76s-8.75,0-13.13,0c-6.87,0-13.74,0-20.62,0-5.59,0-7.57-2-7.58-7.73q0-9.56,0-19.12v-3H923.87c-2.75,23.33-13.57,41.88-33.47,54.69a68.86,68.86,0,0,1-44.2,10.95A71.93,71.93,0,0,1,781,624a70,70,0,0,1,2.85-35,71.49,71.49,0,0,1,19.35-29.79,73,73,0,0,1,30.71-16.87v-6a73.78,73.78,0,0,0-17.19,6.25c-1.11.56-2.17,1.22-3.29,1.76-3.87,1.89-6.67,1.13-8.87-2.54-2.56-4.27-5-8.62-7.5-12.93-1.25-2.16-2.4-4.38-3.75-6.47-2.66-4.11-.8-7.73,2.76-9.68A118.58,118.58,0,0,1,825.85,501c2.64-.62,5.3-1.12,8-1.7V425.19c-.63-.36-1.34-.81-2.09-1.2a18.23,18.23,0,0,1-9.31-20.15A18.46,18.46,0,0,1,840.2,390q59.81.09,119.6,0c14,0,28,0,42,0,7.6,0,13.3,3.61,16.46,10.35,5.59,11.93-2.65,22.86-11.55,25l-3.87.93c3.27,26.16,6.55,52.32,9.86,78.85,6.35.58,12.67.3,19.3.76V452.73c0-1-.06-2,0-3a5.87,5.87,0,0,1,5.79-5.7c2-.12,4,0,6.31,0,1.58-10.8,5.67-20.32,13.54-28.09l8.42,8.32c-5,5.66-8.71,11.83-9.57,19.77,2,0,3.73-.08,5.45,0a5.91,5.91,0,0,1,6,5.89c.07,1,0,2,0,3v54.24c1.86.17,3.55.41,5.25.47,10.23.37,20.47.66,30.7,1.06,9.85.38,19.69,1,29.55,1.24a6.49,6.49,0,0,1,6.51,7c-.55,6.33-.89,12.69-1.31,19-.29,4.49-.58,9-.84,13.45-.6,10.34-1.16,20.69-1.79,31s-1.34,20.91-2.09,31.36a30.32,30.32,0,0,1-1.23,4.8,47.77,47.77,0,0,1,6.26,36.31,46.88,46.88,0,0,1-15.89,26.4A48,48,0,0,1,1049,664.1a48.88,48.88,0,0,1-5.07-23.06c.13-8.13,2.56-15.56,6.28-22.9ZM978.24,517.53c-.28-4-.37-7.13-.74-10.21-.74-6.31-1.64-12.6-2.46-18.9-1.1-8.41-2.16-16.82-3.28-25.22q-1.72-13-3.52-25.93c-.51-3.76-1.07-7.53-1.59-11.22-32.43-.53-93.91-.23-96.64.48q0,36,0,72a3,3,0,0,0,.26.8c.87.22,1.81.49,2.76.67s1.84.22,3,.35v-4.06c0-5.25-.06-10.5,0-15.75.06-4.18,2.34-6.46,6.53-6.49,7.62-.07,15.25-.06,22.87,0,3.77,0,5.58,1.57,6.59,5.34.51,1.92,1,3.85,1.47,5.78q4.71,18.83,9.39,37.63a116.54,116.54,0,0,1,32.88,42c7.59-1.42,14.84-.28,22.09-.85V531.28L958,519.41l-4.51,10.82-11-4.53c4.06-10.14,8-19.93,12-29.94l11,4.51c-1.05,2.83-2,5.24-2.92,7.84Zm-66.78,93.05c-.19-3.32-.18-6.67-.62-10-.89-6.51-3.66-12.34-7.05-17.89a80.51,80.51,0,0,0-5.71-9,57.66,57.66,0,0,0-23.15-17.23,59.56,59.56,0,0,0-38.7-2.44c-8.47,2.18-15.09,7.66-22.46,11.8a18.56,18.56,0,0,0-3.91,3.47c-4.74,4.84-9.12,9.93-11.17,16.59-.11.35-.15.83-.4,1-2.18,1.64-2.52,4.22-3.28,6.53a51,51,0,0,0-2.42,13.78,87.87,87.87,0,0,0,0,12.25,51,51,0,0,0,8,22.63,109.17,109.17,0,0,0,6.32,9.19,45.24,45.24,0,0,0,14.42,11.68c3.9,2.07,7.81,4.14,11.87,5.85,6.78,2.86,14,2.37,21.19,2.44a40.52,40.52,0,0,0,7.4-.19,57.49,57.49,0,0,0,42.21-30,94,94,0,0,0,4.93-10.39C911.59,624.26,911.37,617.4,911.46,610.58Zm160.25-12.09a2.41,2.41,0,0,0-.15-.57c-.23-.29-.47-.58-.73-.85a29.66,29.66,0,0,1-8.65-19.2c-.42-6.57-.8-13.23.6-19.75a29.08,29.08,0,0,1,10.57-17.39,31.89,31.89,0,0,1,20.37-6.73h33.54c0-2.34-.08-4.32,0-6.28s.38-3.86.59-5.92a13.83,13.83,0,0,0-2-.46c-6.47-.28-12.95-.53-19.42-.79l-17.92-.72q-9.9-.39-19.79-.78c-5.85-.23-11.7-.49-17.55-.71q-11.78-.44-23.54-.83c-9.48-.31-18.95-.58-28.42-.89-.86,0-1.71-.25-2.58-.34a17.22,17.22,0,0,0-6.52.05c-.57,17.64-.31,44.74.46,47.67,1.35,0,2.73.07,4.1,0,4.39-.26,7.45,3,7.39,7.39-.12,10.37,0,20.74,0,31.12v3.38h58.61c1.86-1.41,3.59-2.84,5.45-4.07S1069.87,599.56,1071.71,598.49ZM812.14,531.3c28.84-12.88,57.18-12.78,84.48,2.9,27.51,15.8,41.92,40.38,45.14,71.63h12c-.81-27.51-16.68-62.58-50.64-82.29-32.76-19-71.29-16.58-96.9-2.52ZM1003.53,402H838.44c-.4.2-.86.39-1.28.64-2.67,1.67-3.79,4.16-3.13,6.94.61,2.58,3.06,4.34,6.15,4.41h160.13c.75,0,1.5,0,2.25,0a5.75,5.75,0,0,0,5.45-5.52C1008.21,405.11,1006.51,403.12,1003.53,402Zm120.76,174c.3-4.16.57-7.95.86-12h-33V552H1109c2.75,0,5.5.06,8.25,0s5.67.36,8.43-.26c.23-1.9.43-3.61.66-5.53-.88-.07-1.59-.18-2.31-.18h-33c-8.71,0-17,8-17,17q-.06,7.13,0,14.24a13.09,13.09,0,0,0,.49,3.29c2.38,8.39,8.76,13.25,17.46,13.52a49.55,49.55,0,0,1,27.91,9.09c.77.55,1.6,1,2.9,1.83-.45-6,1.21-11.31.51-17h-31.1V576.05Zm-32.12,24.06c-24,.43-42.6,18.54-42.69,42.47s18.24,42.59,42.35,42.69,42.6-18.43,42.69-42.35S1116.28,600.74,1092.17,600.11Zm-91.51-95.57c-3.33-26.33-6.48-52.41-9.85-78.34H978.7c1.79,13.24,3.54,26.25,5.3,39.26s3.25,26,5.32,39.08Zm-142.87-6.46V426.21H846.18c-.7,11.33-.39,69.15.36,71.87ZM929.6,605.83c-3.17-44.89-44.23-75.55-83.61-71.34,0,1.19,0,2.41,0,3.63,0,.6.08,1.19.13,2,19.79-1.14,37.38,4.28,52.38,17s23.23,29.2,25.25,48.68ZM1055.79,507V456.21h-11.66v49.92C1048,507.42,1051.81,506.83,1055.79,507ZM907.85,512.2c-2.23-8.92-4.38-17.52-6.49-26H888.18v17.35Zm58.31,75.6h23.66V576.13H966.16Zm23.75,12.38H966.16v11.54c5.85.56,21.14.41,23.75-.21Zm-23.82,35.64h23.75V624.28c-5.81-.56-21.14-.41-23.75.21Z" transform="translate(-768 -348)"/><path class="cls-3" d="M978.24,517.53l-15.69-9.42c1-2.6,1.87-5,2.92-7.84l-11-4.51c-4,10-7.92,19.8-12,29.94l11,4.53L958,519.41l19.85,11.87v32.58c-7.25.57-14.5-.57-22.09.85a116.54,116.54,0,0,0-32.88-42q-4.68-18.79-9.39-37.63c-.48-1.93-1-3.86-1.47-5.78-1-3.77-2.82-5.31-6.59-5.34-7.62-.05-15.25-.06-22.87,0-4.19,0-6.47,2.31-6.53,6.49-.08,5.25,0,10.5,0,15.75v4.06c-1.12-.13-2-.19-3-.35s-1.89-.45-2.76-.67a3,3,0,0,1-.26-.8q0-36,0-72c2.73-.71,64.21-1,96.64-.48.52,3.69,1.08,7.46,1.59,11.22q1.78,13,3.52,25.93c1.12,8.4,2.18,16.81,3.28,25.22.82,6.3,1.72,12.59,2.46,18.9C977.87,510.4,978,513.5,978.24,517.53Z" transform="translate(-768 -348)"/><path class="cls-4" d="M911.46,610.58c-.09,6.82.13,13.68-2.53,20.14A94,94,0,0,1,904,641.11a57.49,57.49,0,0,1-42.21,30,40.52,40.52,0,0,1-7.4.19c-7.15-.07-14.41.42-21.19-2.44-4.06-1.71-8-3.78-11.87-5.85a45.24,45.24,0,0,1-14.42-11.68,109.17,109.17,0,0,1-6.32-9.19,51,51,0,0,1-8-22.63,87.87,87.87,0,0,1,0-12.25A51,51,0,0,1,795,593.52c.76-2.31,1.1-4.89,3.28-6.53.25-.19.29-.67.4-1,2-6.66,6.43-11.75,11.17-16.59a18.56,18.56,0,0,1,3.91-3.47c7.37-4.14,14-9.62,22.46-11.8a59.56,59.56,0,0,1,38.7,2.44,57.66,57.66,0,0,1,23.15,17.23,80.51,80.51,0,0,1,5.71,9c3.39,5.55,6.16,11.38,7.05,17.89C911.28,603.91,911.27,607.26,911.46,610.58ZM881,591.93c-1-2-8.47-9.61-11.38-11.39-.23,0-.53,0-.7.14a11.78,11.78,0,0,0-1.42,1.21q-23.1,23.22-46.19,46.46c-.06.06,0,.24,0,.36v.37c2.74,3.85,9.69,10.47,11.39,11.16Zm6.82,6.61c-6.81,5.82-47,46.5-48.39,48.88l10.94,11h2l46.72-46.51v-1.76Zm-66.37-5.7c4.17,5,9.4,9.94,11.7,10.93,3.19-2.35,28.42-27.75,30-30.16-4.57-5.45-9.5-10.07-11.52-11Zm5.6,18.76-12.32-12.27h-1.06l-10.34,10.33v2.12c1.83,1.81,3.64,3.7,5.57,5.45s3.43,4.23,6.66,5.61Z" transform="translate(-768 -348)"/><path class="cls-5" d="M1071.71,598.49c-1.84,1.07-3.81,2.09-5.65,3.31s-3.59,2.66-5.45,4.07H1002v-3.38c0-10.38-.08-20.75,0-31.12.06-4.38-3-7.65-7.39-7.39-1.37.09-2.75,0-4.1,0-.77-2.93-1-30-.46-47.67a17.22,17.22,0,0,1,6.52-.05c.87.09,1.72.31,2.58.34,9.47.31,18.94.58,28.42.89q11.76.39,23.54.83c5.85.22,11.7.48,17.55.71q9.88.41,19.79.78l17.92.72c6.47.26,12.95.51,19.42.79a13.83,13.83,0,0,1,2,.46c-.21,2.06-.49,4-.59,5.92s0,3.94,0,6.28h-33.54a31.89,31.89,0,0,0-20.37,6.73,29.08,29.08,0,0,0-10.57,17.39c-1.4,6.52-1,13.18-.6,19.75a29.66,29.66,0,0,0,8.65,19.2c.26.27.5.56.73.85A2.41,2.41,0,0,1,1071.71,598.49ZM1008,528.12c0,2.26,0,4.13,0,6s-.33,3.92.32,5.84h23c.1,0,.2-.13.29-.2l.35-.35c0-1.78,0-3.65,0-5.52s.33-3.93-.29-5.76ZM1031.89,546h-23.21c-.1,0-.21.1-.3.17s-.18.18-.35.35c0,3.73-.06,7.53,0,11.39h23.29c.1,0,.21-.1.3-.17a3.44,3.44,0,0,0,.27-.27Zm.11,18.18h-23.78v11.56H1032V564.22Z" transform="translate(-768 -348)"/><path class="cls-6" d="M812.14,531.3,806.22,521c25.61-14.06,64.14-16.5,96.9,2.52,34,19.71,49.83,54.78,50.64,82.29h-12c-3.22-31.25-17.63-55.83-45.14-71.63C869.32,518.52,841,518.42,812.14,531.3Z" transform="translate(-768 -348)"/><path class="cls-7" d="M1003.53,402c3,1.11,4.68,3.1,4.48,6.46a5.75,5.75,0,0,1-5.45,5.52c-.75.05-1.5,0-2.25,0H840.18c-3.09-.07-5.54-1.83-6.15-4.41-.66-2.78.46-5.27,3.13-6.94.42-.25.88-.44,1.28-.64Z" transform="translate(-768 -348)"/><path class="cls-8" d="M1124.29,576.05h-32.1v11.84h31.1c.7,5.73-1,11.08-.51,17-1.3-.81-2.13-1.28-2.9-1.83A49.55,49.55,0,0,0,1092,594c-8.7-.27-15.08-5.13-17.46-13.52a13.09,13.09,0,0,1-.49-3.29q-.07-7.12,0-14.24c.08-9,8.33-17,17-17h33c.72,0,1.43.11,2.31.18-.23,1.92-.43,3.63-.66,5.53-2.76.62-5.61.18-8.43.26s-5.5,0-8.25,0h-16.86v12h33C1124.86,568.1,1124.59,571.89,1124.29,576.05Z" transform="translate(-768 -348)"/><path class="cls-9" d="M1092.17,600.11c24.11.63,42.45,18.95,42.35,42.81s-18.64,42.45-42.69,42.35-42.45-18.83-42.35-42.69S1068.13,600.54,1092.17,600.11Zm0,80.13a37.48,37.48,0,1,0-37.63-37.52A37.46,37.46,0,0,0,1092.16,680.24Z" transform="translate(-768 -348)"/><path class="cls-10" d="M1000.66,504.54H989.32c-2.07-13.06-3.56-26.09-5.32-39.08s-3.51-26-5.3-39.26h12.11C994.18,452.13,997.33,478.21,1000.66,504.54Z" transform="translate(-768 -348)"/><path class="cls-11" d="M857.79,498.08H846.54c-.75-2.72-1.06-60.54-.36-71.87h11.61Z" transform="translate(-768 -348)"/><path class="cls-12" d="M929.6,605.83h-5.84c-2-19.48-10.25-36-25.25-48.68s-32.59-18.14-52.38-17c0-.84-.12-1.43-.13-2,0-1.22,0-2.44,0-3.63C885.37,530.28,926.43,560.94,929.6,605.83Z" transform="translate(-768 -348)"/><path class="cls-5" d="M1055.79,507c-4-.19-7.82.4-11.66-.89V456.21h11.66Z" transform="translate(-768 -348)"/><path class="cls-13" d="M907.85,512.2l-19.67-8.63V486.22h13.18C903.47,494.68,905.62,503.28,907.85,512.2Z" transform="translate(-768 -348)"/><path class="cls-1" d="M966.16,587.8V576.13h23.66V587.8Z" transform="translate(-768 -348)"/><path class="cls-1" d="M989.91,600.18v11.33c-2.61.62-17.9.77-23.75.21V600.18Z" transform="translate(-768 -348)"/><path class="cls-1" d="M966.09,635.82V624.49c2.61-.62,17.94-.77,23.75-.21v11.54Z" transform="translate(-768 -348)"/><path class="cls-14" d="M881,591.93l-48.33,48.31c-1.7-.69-8.65-7.31-11.39-11.16v-.37c0-.12,0-.3,0-.36q23.08-23.25,46.19-46.46a11.78,11.78,0,0,1,1.42-1.21c.17-.13.47-.1.7-.14C872.55,582.32,880,589.91,881,591.93Z" transform="translate(-768 -348)"/><path class="cls-14" d="M887.84,598.54l11.3,11.61v1.76l-46.72,46.51h-2l-10.94-11C840.81,645,881,604.36,887.84,598.54Z" transform="translate(-768 -348)"/><path class="cls-15" d="M821.47,592.84l30.14-30.18c2,.88,6.95,5.5,11.52,11-1.54,2.41-26.77,27.81-30,30.16C830.87,602.78,825.64,597.88,821.47,592.84Z" transform="translate(-768 -348)"/><path class="cls-16" d="M827.07,611.6l-11.49,11.24c-3.23-1.38-4.67-3.82-6.66-5.61s-3.74-3.64-5.57-5.45v-2.12l10.34-10.33h1.06Z" transform="translate(-768 -348)"/><path d="M1008,528.12h23.69c.62,1.83.22,3.82.29,5.76s0,3.74,0,5.52l-.35.35c-.09.07-.19.2-.29.2h-23c-.65-1.92-.25-3.9-.32-5.84S1008,530.38,1008,528.12Z" transform="translate(-768 -348)"/><path d="M1031.89,546v11.47a3.44,3.44,0,0,1-.27.27c-.09.07-.2.17-.3.17H1008c-.06-3.86,0-7.66,0-11.39.17-.17.25-.27.35-.35s.2-.17.3-.17Z" transform="translate(-768 -348)"/><path d="M1032,564.22v11.56h-23.78V564.22Z" transform="translate(-768 -348)"/><path class="cls-17" d="M1092.16,680.24a37.48,37.48,0,1,1,37.31-37.46A37.47,37.47,0,0,1,1092.16,680.24Zm18.36-62.86h-24.19c-.83,1-1.69,2.08-2.53,3.14q-9,11.22-17.87,22.47a15.16,15.16,0,0,0-1.29,2.76c6.81,0,13-.09,19.25,0a6.54,6.54,0,0,0,5.71-2.74c2.75-3.53,5.6-7,8.43-10.44C1102,627.71,1106.05,622.83,1110.52,617.38Zm-13.81,22.47a24.67,24.67,0,0,0-2.68,2.55c-4.4,5.4-8.74,10.86-13.09,16.31-2.38,3-4.73,6-7.36,9.36h23.48c2.25-2.75,4.45-5.45,6.66-8.14,4.58-5.58,9.14-11.18,13.75-16.74.86-1,1.37-2,.52-3.34Z" transform="translate(-768 -348)"/><path class="cls-18" d="M1110.52,617.38c-4.47,5.45-8.49,10.33-12.49,15.23-2.83,3.47-5.68,6.91-8.43,10.44a6.54,6.54,0,0,1-5.71,2.74c-6.22-.13-12.44,0-19.25,0a15.16,15.16,0,0,1,1.29-2.76q8.89-11.26,17.87-22.47c.84-1.06,1.7-2.11,2.53-3.14Z" transform="translate(-768 -348)"/><path class="cls-18" d="M1096.71,639.85H1118c.85,1.34.34,2.31-.52,3.34-4.61,5.56-9.17,11.16-13.75,16.74-2.21,2.69-4.41,5.39-6.66,8.14h-23.48c2.63-3.35,5-6.37,7.36-9.36,4.35-5.45,8.69-10.91,13.09-16.31A24.67,24.67,0,0,1,1096.71,639.85Z" transform="translate(-768 -348)"/></svg>